<svg width="94" height="94" viewBox="0 0 94 94" fill="none" xmlns="http://www.w3.org/2000/svg">
<path d="M46.9999 37.412L61.2362 31.725L25.9862 17.625L13.832 22.4848C13.2188 22.7289 12.6429 23.058 12.1212 23.4624L46.9999 37.4167V37.412ZM9.5644 27.5091C9.45477 28.0077 9.39961 28.5167 9.3999 29.0272V64.9634C9.39967 66.3726 9.8218 67.7497 10.6118 68.9167C11.4018 70.0837 12.5235 70.9872 13.832 71.5105L40.8899 82.3346C42.1119 82.8234 43.3715 83.1571 44.6499 83.3404V41.5386L9.5644 27.5044V27.5091ZM49.3499 83.3451C50.6386 83.1598 51.9008 82.8221 53.1099 82.3393L80.1678 71.5152C81.4771 70.9916 82.5993 70.0874 83.3893 68.9194C84.1794 67.7515 84.6011 66.3734 84.5999 64.9634V29.0272C84.5999 28.5102 84.5435 27.9979 84.4354 27.5044L49.3499 41.5386V83.3404V83.3451ZM81.8786 23.4671L67.5624 29.1964L32.3124 15.0964L40.8899 11.656C44.8122 10.0869 49.1877 10.0869 53.1099 11.656L80.1678 22.4801C80.7811 22.7243 81.3569 23.0533 81.8786 23.4577V23.4671Z" fill="url(#paint0_linear_421_158)"/>
<defs>
<linearGradient id="paint0_linear_421_158" x1="46.9999" y1="-25.9538" x2="-25.8297" y2="49.2089" gradientUnits="userSpaceOnUse">
<stop stop-color="#FF057C"/>
<stop offset="0.505122" stop-color="#8D0B93"/>
<stop offset="1" stop-color="#321575"/>
</linearGradient>
</defs>
</svg>
