<svg width="216" height="95" viewBox="0 0 216 95" fill="none" xmlns="http://www.w3.org/2000/svg">
<path fill-rule="evenodd" clip-rule="evenodd" d="M47.6369 70.5L10 24.5H47.6369C60.4281 24.5 70.7978 34.7974 70.7978 47.5C70.7978 60.2024 60.4281 70.5 47.6369 70.5ZM65.0074 47.5C65.0074 56.1498 58.5966 63.3127 50.2357 64.5582L43.2816 56.0586C44.2273 53.3781 44.7417 50.497 44.7417 47.5C44.7417 40.8729 42.2329 34.8278 38.1069 30.25H47.6369C57.2305 30.25 65.0074 37.9731 65.0074 47.5ZM38.9513 47.5C38.9513 48.518 38.8754 49.5179 38.7289 50.4944L22.1652 30.25H29.1299C35.0152 33.7716 38.9513 40.1793 38.9513 47.5ZM89.56 42.2955C89.56 41.8025 89.3402 41.4432 88.9004 41.2178C87.8221 40.6684 86.6518 40.3937 85.3893 40.3937C83.928 40.3937 82.616 40.7177 81.4526 41.3658C80.2893 41.9997 79.3743 42.8872 78.7076 44.0283C78.0549 45.1694 77.7288 46.4584 77.7288 47.8953C77.7288 49.5154 78.0762 50.8959 78.7714 52.037C79.4667 53.1781 80.3957 54.0445 81.559 54.6362C82.7224 55.2137 83.9991 55.5026 85.3893 55.5026C86.6378 55.5026 87.8151 55.2278 88.9216 54.6784C89.1344 54.5798 89.2977 54.439 89.4111 54.2558C89.5245 54.0727 89.5813 53.8684 89.5813 53.643C89.5813 53.3331 89.4749 53.0443 89.2621 52.7766C89.0068 52.4667 88.6946 52.3117 88.3258 52.3117C88.1273 52.3117 87.9002 52.3681 87.6449 52.4808C87.0065 52.8048 86.2547 52.9668 85.3893 52.9668C83.928 52.9668 82.7437 52.5371 81.8357 51.6778C80.9419 50.8185 80.4951 49.5576 80.4951 47.8953C80.4951 46.9233 80.6936 46.0639 81.0909 45.3173C81.4882 44.5566 82.0555 43.9719 82.7932 43.5634C83.531 43.1408 84.3962 42.9295 85.3893 42.9295C86.1979 42.9295 86.9497 43.0915 87.6449 43.4155C87.886 43.5423 88.1273 43.6057 88.3684 43.6057C88.7231 43.6057 89.0138 43.4577 89.2408 43.1619C89.4536 42.8802 89.56 42.5914 89.56 42.2955ZM101.731 44.1339C101.489 43.8945 101.185 43.7747 100.816 43.7747C100.447 43.7747 100.142 43.9015 99.9008 44.1551C99.6595 44.3946 99.5391 44.6975 99.5391 45.0637V45.0849C99.1275 44.7045 98.6241 44.3946 98.0282 44.1551C97.4324 43.9015 96.7941 43.7747 96.1131 43.7747C95.1625 43.7747 94.2901 44.0283 93.4958 44.5354C92.7154 45.0285 92.0983 45.7258 91.6445 46.6274C91.1903 47.5149 90.9635 48.5222 90.9635 49.6492C90.9635 50.7762 91.1903 51.7835 91.6445 52.671C92.1126 53.5585 92.7437 54.2558 93.5383 54.763C94.3327 55.2559 95.2194 55.5026 96.1982 55.5026C96.8649 55.5026 97.4963 55.3616 98.0921 55.0799C98.7019 54.7841 99.1843 54.4319 99.5391 54.0234C99.5531 54.3896 99.6737 54.6926 99.9008 54.932C100.142 55.1714 100.447 55.2912 100.816 55.2912C101.185 55.2912 101.489 55.1714 101.731 54.932C101.972 54.6784 102.093 54.3685 102.093 54.0022V45.0637C102.093 44.6834 101.972 44.3734 101.731 44.1339ZM98.773 52.1849C98.1912 52.847 97.4394 53.1781 96.5174 53.1781C95.5951 53.1781 94.8434 52.847 94.2618 52.1849C93.6943 51.5087 93.4107 50.6635 93.4107 49.6492C93.4107 48.6349 93.7013 47.7896 94.2831 47.1135C94.8646 46.4373 95.6094 46.0991 96.5174 46.0991C97.4394 46.0991 98.1912 46.4373 98.773 47.1135C99.3546 47.7896 99.6455 48.6349 99.6455 49.6492C99.6455 50.6635 99.3546 51.5087 98.773 52.1849ZM107.243 54.932C107.498 54.6784 107.626 54.3685 107.626 54.0022V40.9431C107.626 40.5769 107.505 40.274 107.264 40.0345C107.023 39.7809 106.725 39.6541 106.371 39.6541C106.002 39.6541 105.69 39.7809 105.434 40.0345C105.193 40.274 105.073 40.5769 105.073 40.9431V54.0022C105.073 54.3685 105.193 54.6784 105.434 54.932C105.675 55.1714 105.973 55.2912 106.328 55.2912C106.697 55.2912 107.002 55.1714 107.243 54.932ZM126.64 45.0637C126.101 44.2044 125.129 43.7747 123.724 43.7747C122.888 43.7747 122.136 44.0142 121.469 44.4932C120.816 44.9722 120.327 45.5075 120.001 46.0991C119.504 44.5495 118.362 43.7747 116.575 43.7747C115.851 43.7747 115.191 43.9579 114.596 44.3241C114.014 44.6763 113.532 45.106 113.149 45.6131V45.275C113.149 44.9088 113.028 44.6059 112.787 44.3664C112.546 44.1128 112.241 43.986 111.872 43.986C111.503 43.986 111.198 44.1128 110.957 44.3664C110.716 44.6059 110.595 44.9088 110.595 45.275V54.0022C110.595 54.3685 110.716 54.6784 110.957 54.932C111.198 55.1714 111.503 55.2912 111.872 55.2912C112.241 55.2912 112.546 55.1714 112.787 54.932C113.028 54.6784 113.149 54.3685 113.149 54.0022V48.5926C113.149 47.8742 113.369 47.2825 113.808 46.8176C114.262 46.3386 114.887 46.0991 115.681 46.0991C116.447 46.0991 116.979 46.3246 117.277 46.7753C117.589 47.2121 117.745 47.8178 117.745 48.5926V54.0022C117.745 54.3685 117.866 54.6784 118.107 54.932C118.348 55.1714 118.653 55.2912 119.022 55.2912C119.391 55.2912 119.696 55.1714 119.937 54.932C120.178 54.6784 120.298 54.3685 120.298 54.0022V48.5926C120.298 47.8742 120.519 47.2825 120.958 46.8176C121.412 46.3386 122.036 46.0991 122.831 46.0991C123.597 46.0991 124.129 46.3246 124.427 46.7753C124.739 47.2121 124.895 47.8178 124.895 48.5926V54.0022C124.895 54.3685 125.015 54.6784 125.257 54.932C125.498 55.1714 125.803 55.2912 126.172 55.2912C126.541 55.2912 126.845 55.1714 127.087 54.932C127.328 54.6784 127.448 54.3685 127.448 54.0022V48.5926C127.448 47.0853 127.179 45.909 126.64 45.0637ZM146.199 41.4925C145.248 40.8304 144.106 40.4994 142.773 40.4994H137.687C137.318 40.4994 137.006 40.6262 136.751 40.8797C136.509 41.1192 136.389 41.4221 136.389 41.7884V54.0022C136.389 54.3685 136.509 54.6784 136.751 54.932C137.006 55.1714 137.318 55.2912 137.687 55.2912H142.773C144.106 55.2912 145.248 54.9673 146.199 54.3192C147.163 53.6571 147.894 52.7696 148.39 51.6567C148.901 50.5297 149.156 49.2759 149.156 47.8953C149.156 46.5147 148.901 45.268 148.39 44.1551C147.894 43.0281 147.163 42.1406 146.199 41.4925ZM145.433 51.4665C144.794 52.3963 143.837 52.8611 142.56 52.8611H139.049V42.9295H142.56C143.822 42.9295 144.773 43.4014 145.411 44.3453C146.064 45.275 146.39 46.4584 146.39 47.8953C146.39 49.3322 146.071 50.5226 145.433 51.4665ZM158.367 44.1339C158.083 43.8945 157.729 43.7747 157.303 43.7747C156.608 43.7747 155.955 43.9297 155.345 44.2396C154.735 44.5354 154.267 44.9722 153.941 45.5497V45.275C153.941 44.9088 153.82 44.6059 153.579 44.3664C153.338 44.1128 153.033 43.986 152.664 43.986C152.295 43.986 151.99 44.1128 151.749 44.3664C151.508 44.6059 151.387 44.9088 151.387 45.275V54.0022C151.387 54.3685 151.508 54.6784 151.749 54.932C151.99 55.1714 152.295 55.2912 152.664 55.2912C153.033 55.2912 153.338 55.1714 153.579 54.932C153.82 54.6784 153.941 54.3685 153.941 54.0022V48.9941C153.941 48.3602 154.047 47.8178 154.26 47.367C154.487 46.9021 154.771 46.557 155.111 46.3316C155.452 46.1062 155.806 45.9935 156.175 45.9935C156.346 45.9935 156.501 46.0146 156.643 46.0569C156.799 46.0992 156.899 46.1273 156.941 46.1414C157.211 46.24 157.452 46.2893 157.665 46.2893C157.977 46.2893 158.246 46.1837 158.473 45.9724C158.7 45.747 158.814 45.4159 158.814 44.9792C158.814 44.6552 158.665 44.3734 158.367 44.1339ZM162.657 54.932C162.898 54.6784 163.018 54.3685 163.018 54.0022V45.275C163.018 44.9088 162.898 44.6059 162.657 44.3664C162.416 44.1128 162.111 43.986 161.742 43.986C161.373 43.986 161.068 44.1128 160.827 44.3664C160.586 44.6059 160.465 44.9088 160.465 45.275V54.0022C160.465 54.3685 160.586 54.6784 160.827 54.932C161.068 55.1714 161.373 55.2912 161.742 55.2912C162.111 55.2912 162.416 55.1714 162.657 54.932ZM160.699 42.3801C160.898 42.535 161.238 42.6125 161.72 42.6125C162.217 42.6125 162.565 42.5421 162.763 42.4012C162.976 42.2462 163.082 41.9645 163.082 41.5559V41.1544C163.082 40.76 162.983 40.4853 162.784 40.3303C162.586 40.1754 162.238 40.0979 161.742 40.0979C161.273 40.0979 160.933 40.1754 160.72 40.3303C160.507 40.4853 160.401 40.76 160.401 41.1544V41.5559C160.401 41.9504 160.5 42.2251 160.699 42.3801ZM175.24 44.3453C175.013 44.1198 174.729 44.0072 174.388 44.0072C174.147 43.9931 173.928 44.0565 173.729 44.1973C173.53 44.3382 173.374 44.5425 173.261 44.8101L170.345 51.4665L167.409 44.789C167.296 44.5354 167.125 44.3382 166.898 44.1973C166.671 44.0565 166.423 43.986 166.153 43.986C165.799 43.986 165.501 44.1058 165.26 44.3453C165.019 44.5707 164.898 44.8242 164.898 45.106C164.898 45.3314 164.948 45.5568 165.047 45.7822L169.005 54.4883C169.119 54.7418 169.274 54.9462 169.473 55.1011C169.686 55.242 169.913 55.3124 170.154 55.3124L170.345 55.2912C170.587 55.2771 170.799 55.1998 170.984 55.0588C171.182 54.9178 171.331 54.7276 171.431 54.4883L175.41 45.7822C175.524 45.5286 175.58 45.3173 175.58 45.1482C175.58 44.8242 175.467 44.5566 175.24 44.3453ZM179.634 54.932C179.875 54.6784 179.996 54.3685 179.996 54.0022V45.275C179.996 44.9088 179.875 44.6059 179.634 44.3664C179.393 44.1128 179.088 43.986 178.719 43.986C178.351 43.986 178.045 44.1128 177.804 44.3664C177.563 44.6059 177.443 44.9088 177.443 45.275V54.0022C177.443 54.3685 177.563 54.6784 177.804 54.932C178.045 55.1714 178.351 55.2912 178.719 55.2912C179.088 55.2912 179.393 55.1714 179.634 54.932ZM177.677 42.3801C177.875 42.535 178.216 42.6125 178.698 42.6125C179.195 42.6125 179.542 42.5421 179.741 42.4012C179.954 42.2462 180.06 41.9645 180.06 41.5559V41.1544C180.06 40.76 179.961 40.4853 179.762 40.3303C179.563 40.1754 179.216 40.0979 178.719 40.0979C178.251 40.0979 177.911 40.1754 177.698 40.3303C177.485 40.4853 177.379 40.76 177.379 41.1544V41.5559C177.379 41.9504 177.478 42.2251 177.677 42.3801ZM191.707 45.0637C191.153 44.2044 190.153 43.7747 188.706 43.7747C187.969 43.7747 187.288 43.9579 186.664 44.3241C186.053 44.6904 185.557 45.1271 185.174 45.6343V45.275C185.174 44.9088 185.053 44.6059 184.812 44.3664C184.571 44.1128 184.266 43.986 183.897 43.986C183.528 43.986 183.223 44.1128 182.982 44.3664C182.741 44.6059 182.621 44.9088 182.621 45.275V54.0022C182.621 54.3685 182.741 54.6784 182.982 54.932C183.223 55.1714 183.528 55.2912 183.897 55.2912C184.266 55.2912 184.571 55.1714 184.812 54.932C185.053 54.6784 185.174 54.3685 185.174 54.0022V48.5926C185.174 47.8742 185.408 47.2825 185.876 46.8176C186.344 46.3386 186.99 46.0991 187.813 46.0991C188.607 46.0991 189.167 46.3246 189.494 46.7753C189.82 47.2121 189.983 47.8178 189.983 48.5926V54.0022C189.983 54.3685 190.104 54.6784 190.345 54.932C190.586 55.1714 190.891 55.2912 191.26 55.2912C191.629 55.2912 191.934 55.1714 192.175 54.932C192.416 54.6784 192.537 54.3685 192.537 54.0022V48.5926C192.537 47.0853 192.26 45.909 191.707 45.0637ZM205.638 44.1339C205.397 43.8945 205.092 43.7747 204.723 43.7747C204.355 43.7747 204.049 43.9015 203.808 44.1551C203.567 44.3946 203.446 44.6975 203.446 45.0637V45.2962C203.063 44.8735 202.56 44.5143 201.936 44.2185C201.312 43.9226 200.638 43.7747 199.914 43.7747C198.935 43.7747 198.042 44.0283 197.233 44.5354C196.439 45.0285 195.807 45.7258 195.339 46.6274C194.885 47.5149 194.658 48.5222 194.658 49.6492C194.658 50.7762 194.892 51.7835 195.36 52.671C195.829 53.5585 196.467 54.2558 197.276 54.763C198.098 55.2559 199.006 55.5026 199.999 55.5026C200.723 55.5026 201.397 55.3266 202.021 54.9743C202.659 54.6221 203.134 54.2276 203.446 53.7909V54.8052C203.446 55.5659 203.184 56.1507 202.659 56.5591C202.148 56.9817 201.368 57.1931 200.318 57.1931C199.793 57.1931 199.205 57.0663 198.552 56.8127C197.914 56.5733 197.566 56.4465 197.51 56.4323C197.382 56.3901 197.247 56.3689 197.105 56.3689C196.864 56.3689 196.637 56.4465 196.424 56.6014C196.226 56.7704 196.084 57.0098 195.999 57.3198C195.956 57.4466 195.935 57.5592 195.935 57.6579C195.935 58.1793 196.282 58.5877 196.978 58.8836C197.29 59.0245 197.814 59.1652 198.552 59.3062C199.304 59.4472 199.893 59.5175 200.318 59.5175C201.964 59.5175 203.319 59.1018 204.383 58.2707C205.461 57.4536 206 56.1857 206 54.4671V45.0637C206 44.6834 205.879 44.3734 205.638 44.1339ZM202.638 52.1849C202.042 52.847 201.269 53.1781 200.318 53.1781C199.368 53.1781 198.595 52.847 197.999 52.1849C197.403 51.5087 197.105 50.6635 197.105 49.6492C197.105 48.6349 197.403 47.7896 197.999 47.1135C198.595 46.4373 199.368 46.0991 200.318 46.0991C201.269 46.0991 202.042 46.4373 202.638 47.1135C203.248 47.7896 203.553 48.6349 203.553 49.6492C203.553 50.6635 203.248 51.5087 202.638 52.1849Z" fill="#8A8A8A"/>
</svg>
