<svg width="167" height="56" viewBox="0 0 167 56" fill="none" xmlns="http://www.w3.org/2000/svg">
<path d="M0.57 10.923C3.39267 9.80366 6.21533 8.368 9.038 6.616C11.9093 4.864 14.44 2.79566 16.63 0.410999H22.835V51H14.002V12.237C12.688 13.259 11.0333 14.2567 9.038 15.23C7.04267 16.2033 5.12033 17.0063 3.271 17.639L0.57 10.923ZM63.4492 36.546C63.4492 34.94 63.1329 33.5043 62.5002 32.239C61.8676 30.9737 60.7482 29.903 59.1422 29.027C57.5849 28.151 55.4679 27.494 52.7912 27.056C50.1632 26.618 46.8296 26.399 42.7902 26.399C43.3256 21.727 43.7392 17.2983 44.0312 13.113C44.3232 8.879 44.5666 4.645 44.7612 0.410999H70.6032V7.857H52.2802C52.2316 8.68433 52.1586 9.63333 52.0612 10.704C52.0126 11.726 51.9396 12.7723 51.8422 13.843C51.7936 14.9137 51.7206 15.9357 51.6232 16.909C51.5259 17.8823 51.4286 18.7097 51.3312 19.391C58.5339 19.7803 63.8386 21.435 67.2452 24.355C70.7006 27.2263 72.4282 31.1683 72.4282 36.181C72.4282 38.4683 72.0389 40.5853 71.2602 42.532C70.4816 44.4787 69.2892 46.1577 67.6832 47.569C66.0772 48.9803 64.0576 50.0997 61.6242 50.927C59.1909 51.7057 56.3439 52.095 53.0832 52.095C51.7692 52.095 50.4309 51.9977 49.0682 51.803C47.7056 51.6083 46.3916 51.365 45.1262 51.073C43.9096 50.8297 42.8146 50.562 41.8412 50.27C40.8679 49.978 40.1379 49.7103 39.6512 49.467L41.3302 42.021C42.3522 42.5077 43.8122 43.043 45.7102 43.627C47.6569 44.1623 50.0172 44.43 52.7912 44.43C54.6892 44.43 56.3196 44.2353 57.6822 43.846C59.0449 43.408 60.1399 42.824 60.9672 42.094C61.8432 41.364 62.4759 40.5367 62.8652 39.612C63.2546 38.6387 63.4492 37.6167 63.4492 36.546ZM98.4936 41.425C98.3269 43.075 98.2019 44.725 98.1186 46.375C98.0352 48.0083 97.9686 49.55 97.9186 51H95.6936C95.7269 49.9833 95.7769 48.925 95.8436 47.825C95.9102 46.7083 95.9852 45.5917 96.0686 44.475C96.1519 43.3417 96.2436 42.2333 96.3436 41.15C96.4436 40.05 96.5519 39 96.6686 38H98.7936C99.3269 38.8667 99.9519 40.0583 100.669 41.575C101.385 43.075 102.21 44.8083 103.144 46.775C104.077 44.8083 104.902 43.075 105.619 41.575C106.335 40.0583 106.96 38.8667 107.494 38H109.644C109.76 39 109.869 40.05 109.969 41.15C110.069 42.2333 110.16 43.3417 110.244 44.475C110.327 45.5917 110.402 46.7083 110.469 47.825C110.535 48.925 110.585 49.9833 110.619 51H108.319C108.269 49.55 108.202 48.0083 108.119 46.375C108.035 44.725 107.91 43.075 107.744 41.425C107.477 41.9417 107.169 42.5667 106.819 43.3C106.469 44.0167 106.119 44.75 105.769 45.5C105.435 46.25 105.119 46.9667 104.819 47.65C104.519 48.3333 104.285 48.875 104.119 49.275H102.169C101.985 48.8583 101.735 48.3083 101.419 47.625C101.119 46.9417 100.794 46.225 100.444 45.475C100.11 44.7083 99.7686 43.9667 99.4186 43.25C99.0686 42.5167 98.7602 41.9083 98.4936 41.425ZM125.23 38V51H122.98V41.1C122.48 41.7333 121.93 42.475 121.33 43.325C120.73 44.175 120.13 45.0583 119.53 45.975C118.93 46.875 118.355 47.7667 117.805 48.65C117.255 49.5333 116.78 50.3167 116.38 51H114.305V38H116.555V47.35C116.988 46.6333 117.48 45.85 118.03 45C118.58 44.1333 119.146 43.2833 119.73 42.45C120.33 41.6 120.921 40.7917 121.505 40.025C122.105 39.2417 122.663 38.5667 123.18 38H125.23ZM139.872 51H137.547V45.25H131.547V51H129.222V38H131.547V43.3H137.547V38H139.872V51ZM142.345 53.425C142.528 53.5083 142.762 53.5833 143.045 53.65C143.345 53.7333 143.637 53.775 143.92 53.775C144.837 53.775 145.553 53.5667 146.07 53.15C146.587 52.75 147.053 52.0917 147.47 51.175C146.42 49.175 145.437 47.0583 144.52 44.825C143.62 42.575 142.87 40.3 142.27 38H144.77C144.953 38.75 145.17 39.5583 145.42 40.425C145.687 41.2917 145.978 42.1833 146.295 43.1C146.612 44.0167 146.953 44.9333 147.32 45.85C147.687 46.7667 148.07 47.65 148.47 48.5C149.103 46.75 149.653 45.0167 150.12 43.3C150.587 41.5833 151.028 39.8167 151.445 38H153.845C153.245 40.45 152.578 42.8083 151.845 45.075C151.112 47.325 150.32 49.4333 149.47 51.4C149.137 52.15 148.787 52.7917 148.42 53.325C148.07 53.875 147.678 54.325 147.245 54.675C146.812 55.025 146.32 55.2833 145.77 55.45C145.237 55.6167 144.628 55.7 143.945 55.7C143.762 55.7 143.57 55.6833 143.37 55.65C143.17 55.6333 142.97 55.6 142.77 55.55C142.587 55.5167 142.412 55.475 142.245 55.425C142.095 55.375 141.987 55.3333 141.92 55.3L142.345 53.425ZM166.009 38V39.95H161.784V51H159.459V39.95H155.234V38H166.009Z" fill="url(#paint0_linear_421_184)"/>
<defs>
<linearGradient id="paint0_linear_421_184" x1="102" y1="-60" x2="45.2493" y2="85.9303" gradientUnits="userSpaceOnUse">
<stop stop-color="#FF057C"/>
<stop offset="0.505122" stop-color="#8D0B93"/>
<stop offset="1" stop-color="#321575"/>
</linearGradient>
</defs>
</svg>
