<svg width="151" height="54" viewBox="0 0 151 54" fill="none" xmlns="http://www.w3.org/2000/svg">
<path d="M32.113 14.551C32.113 16.303 31.748 18.0307 31.018 19.734C30.288 21.3887 29.339 23.019 28.171 24.625C27.0517 26.1823 25.762 27.7153 24.302 29.224C22.842 30.684 21.382 32.1197 19.922 33.531C19.1433 34.261 18.2673 35.137 17.294 36.159C16.3207 37.181 15.396 38.203 14.52 39.225C13.644 40.247 12.8897 41.2447 12.257 42.218C11.6243 43.1427 11.2837 43.9213 11.235 44.554H33.719V52H1.526C1.47733 51.6107 1.453 51.1483 1.453 50.613C1.453 50.029 1.453 49.591 1.453 49.299C1.453 46.963 1.818 44.8217 2.548 42.875C3.32667 40.8797 4.32433 39.0303 5.541 37.327C6.75767 35.6237 8.12033 34.0177 9.629 32.509C11.1377 31.0003 12.6463 29.516 14.155 28.056C15.323 26.9367 16.4423 25.8417 17.513 24.771C18.5837 23.7003 19.5083 22.654 20.287 21.632C21.1143 20.5613 21.7713 19.4907 22.258 18.42C22.7447 17.3007 22.988 16.157 22.988 14.989C22.988 12.4583 22.258 10.6577 20.798 9.587C19.338 8.51633 17.5617 7.981 15.469 7.981C14.1063 7.981 12.841 8.17566 11.673 8.565C10.505 8.95433 9.45867 9.41667 8.534 9.952C7.658 10.4873 6.87933 11.047 6.198 11.631C5.51667 12.1663 5.00567 12.6043 4.665 12.945L0.285 6.74C2.329 4.79333 4.71367 3.236 7.439 2.068C10.213 0.85133 13.1817 0.242996 16.345 0.242996C21.747 0.242996 25.7133 1.53266 28.244 4.112C30.8233 6.64266 32.113 10.1223 32.113 14.551ZM76.8152 26.669C76.8152 35.1857 75.2579 41.7313 72.1432 46.306C69.0286 50.832 64.7216 53.095 59.2222 53.095C53.7229 53.095 49.4159 50.832 46.3012 46.306C43.1866 41.7313 41.6292 35.1857 41.6292 26.669C41.6292 22.435 42.0186 18.6877 42.7972 15.427C43.6246 12.1177 44.7926 9.34367 46.3012 7.105C47.8586 4.86633 49.7079 3.163 51.8492 1.995C54.0392 0.826996 56.4969 0.242996 59.2222 0.242996C64.7216 0.242996 69.0286 2.53033 72.1432 7.105C75.2579 11.631 76.8152 18.1523 76.8152 26.669ZM67.6902 26.669C67.6902 24.041 67.5442 21.5833 67.2522 19.296C66.9602 17.0087 66.4736 15.0377 65.7922 13.383C65.1596 11.6797 64.3079 10.3413 63.2372 9.368C62.1666 8.39466 60.8282 7.908 59.2222 7.908C57.6162 7.908 56.2536 8.39466 55.1342 9.368C54.0636 10.3413 53.1876 11.6797 52.5062 13.383C51.8736 15.0377 51.4112 17.0087 51.1192 19.296C50.8759 21.5833 50.7542 24.041 50.7542 26.669C50.7542 29.297 50.8759 31.7547 51.1192 34.042C51.4112 36.3293 51.8736 38.3247 52.5062 40.028C53.1876 41.6827 54.0636 42.9967 55.1342 43.97C56.2536 44.9433 57.6162 45.43 59.2222 45.43C60.8282 45.43 62.1666 44.9433 63.2372 43.97C64.3079 42.9967 65.1596 41.6827 65.7922 40.028C66.4736 38.3247 66.9602 36.3293 67.2522 34.042C67.5442 31.7547 67.6902 29.297 67.6902 26.669ZM115.093 14.551C115.093 16.303 114.728 18.0307 113.998 19.734C113.268 21.3887 112.319 23.019 111.151 24.625C110.032 26.1823 108.742 27.7153 107.282 29.224C105.822 30.684 104.362 32.1197 102.902 33.531C102.124 34.261 101.248 35.137 100.274 36.159C99.3011 37.181 98.3765 38.203 97.5005 39.225C96.6245 40.247 95.8701 41.2447 95.2375 42.218C94.6048 43.1427 94.2641 43.9213 94.2155 44.554H116.699V52H84.5065C84.4578 51.6107 84.4335 51.1483 84.4335 50.613C84.4335 50.029 84.4335 49.591 84.4335 49.299C84.4335 46.963 84.7985 44.8217 85.5285 42.875C86.3071 40.8797 87.3048 39.0303 88.5215 37.327C89.7381 35.6237 91.1008 34.0177 92.6095 32.509C94.1181 31.0003 95.6268 29.516 97.1355 28.056C98.3035 26.9367 99.4228 25.8417 100.493 24.771C101.564 23.7003 102.489 22.654 103.267 21.632C104.095 20.5613 104.752 19.4907 105.238 18.42C105.725 17.3007 105.968 16.157 105.968 14.989C105.968 12.4583 105.238 10.6577 103.778 9.587C102.318 8.51633 100.542 7.981 98.4495 7.981C97.0868 7.981 95.8215 8.17566 94.6535 8.565C93.4855 8.95433 92.4391 9.41667 91.5145 9.952C90.6385 10.4873 89.8598 11.047 89.1785 11.631C88.4971 12.1663 87.9861 12.6043 87.6455 12.945L83.2655 6.74C85.3095 4.79333 87.6941 3.236 90.4195 2.068C93.1935 0.85133 96.1621 0.242996 99.3255 0.242996C104.727 0.242996 108.694 1.53266 111.224 4.112C113.804 6.64266 115.093 10.1223 115.093 14.551ZM128.041 11.923C130.863 10.8037 133.686 9.368 136.509 7.616C139.38 5.864 141.911 3.79566 144.101 1.411H150.306V52H141.473V13.237C140.159 14.259 138.504 15.2567 136.509 16.23C134.513 17.2033 132.591 18.0063 130.742 18.639L128.041 11.923Z" fill="url(#paint0_linear_421_180)"/>
<defs>
<linearGradient id="paint0_linear_421_180" x1="105" y1="-59" x2="48.2493" y2="86.9303" gradientUnits="userSpaceOnUse">
<stop stop-color="#FF057C"/>
<stop offset="0.505122" stop-color="#8D0B93"/>
<stop offset="1" stop-color="#321575"/>
</linearGradient>
</defs>
</svg>
