<svg width="184" height="57" viewBox="0 0 184 57" fill="none" xmlns="http://www.w3.org/2000/svg">
<path d="M32.113 14.551C32.113 16.303 31.748 18.0307 31.018 19.734C30.288 21.3887 29.339 23.019 28.171 24.625C27.0517 26.1823 25.762 27.7153 24.302 29.224C22.842 30.684 21.382 32.1197 19.922 33.531C19.1433 34.261 18.2673 35.137 17.294 36.159C16.3207 37.181 15.396 38.203 14.52 39.225C13.644 40.247 12.8897 41.2447 12.257 42.218C11.6243 43.1427 11.2837 43.9213 11.235 44.554H33.719V52H1.526C1.47733 51.6107 1.453 51.1483 1.453 50.613C1.453 50.029 1.453 49.591 1.453 49.299C1.453 46.963 1.818 44.8217 2.548 42.875C3.32667 40.8797 4.32433 39.0303 5.541 37.327C6.75767 35.6237 8.12033 34.0177 9.629 32.509C11.1377 31.0003 12.6463 29.516 14.155 28.056C15.323 26.9367 16.4423 25.8417 17.513 24.771C18.5837 23.7003 19.5083 22.654 20.287 21.632C21.1143 20.5613 21.7713 19.4907 22.258 18.42C22.7447 17.3007 22.988 16.157 22.988 14.989C22.988 12.4583 22.258 10.6577 20.798 9.587C19.338 8.51633 17.5617 7.981 15.469 7.981C14.1063 7.981 12.841 8.17566 11.673 8.565C10.505 8.95433 9.45867 9.41667 8.534 9.952C7.658 10.4873 6.87933 11.047 6.198 11.631C5.51667 12.1663 5.00567 12.6043 4.665 12.945L0.285 6.74C2.329 4.79333 4.71367 3.236 7.439 2.068C10.213 0.85133 13.1817 0.242996 16.345 0.242996C21.747 0.242996 25.7133 1.53266 28.244 4.112C30.8233 6.64266 32.113 10.1223 32.113 14.551ZM66.4492 37.546C66.4492 35.94 66.1329 34.5043 65.5002 33.239C64.8676 31.9737 63.7482 30.903 62.1422 30.027C60.5849 29.151 58.4679 28.494 55.7912 28.056C53.1632 27.618 49.8296 27.399 45.7902 27.399C46.3256 22.727 46.7392 18.2983 47.0312 14.113C47.3232 9.879 47.5666 5.645 47.7612 1.411H73.6032V8.857H55.2802C55.2316 9.68433 55.1586 10.6333 55.0612 11.704C55.0126 12.726 54.9396 13.7723 54.8422 14.843C54.7936 15.9137 54.7206 16.9357 54.6232 17.909C54.5259 18.8823 54.4286 19.7097 54.3312 20.391C61.5339 20.7803 66.8386 22.435 70.2452 25.355C73.7006 28.2263 75.4282 32.1683 75.4282 37.181C75.4282 39.4683 75.0389 41.5853 74.2602 43.532C73.4816 45.4787 72.2892 47.1577 70.6832 48.569C69.0772 49.9803 67.0576 51.0997 64.6242 51.927C62.1909 52.7057 59.3439 53.095 56.0832 53.095C54.7692 53.095 53.4309 52.9977 52.0682 52.803C50.7056 52.6083 49.3916 52.365 48.1262 52.073C46.9096 51.8297 45.8146 51.562 44.8412 51.27C43.8679 50.978 43.1379 50.7103 42.6512 50.467L44.3302 43.021C45.3522 43.5077 46.8122 44.043 48.7102 44.627C50.6569 45.1623 53.0172 45.43 55.7912 45.43C57.6892 45.43 59.3196 45.2353 60.6822 44.846C62.0449 44.408 63.1399 43.824 63.9672 43.094C64.8432 42.364 65.4759 41.5367 65.8652 40.612C66.2546 39.6387 66.4492 38.6167 66.4492 37.546ZM97.4186 50.1H98.8186C99.3686 49.3 99.8019 48.475 100.119 47.625C100.452 46.775 100.702 45.9 100.869 45C101.035 44.0833 101.144 43.1333 101.194 42.15C101.244 41.15 101.277 40.1 101.294 39H109.819V50.1H111.569V55.625H109.369V52H99.6186V55.625H97.4186V50.1ZM107.494 50.1V40.95H103.419C103.402 41.7333 103.36 42.525 103.294 43.325C103.227 44.1083 103.119 44.8917 102.969 45.675C102.819 46.4417 102.602 47.2 102.319 47.95C102.052 48.6833 101.71 49.4 101.294 50.1H107.494ZM123.107 45.525C123.107 44.0083 122.732 42.8417 121.982 42.025C121.232 41.2083 120.232 40.8 118.982 40.8C118.282 40.8 117.732 40.825 117.332 40.875C116.949 40.925 116.64 40.9833 116.407 41.05V49.25C116.69 49.4833 117.099 49.7083 117.632 49.925C118.165 50.1417 118.749 50.25 119.382 50.25C120.049 50.25 120.615 50.1333 121.082 49.9C121.565 49.65 121.957 49.3167 122.257 48.9C122.557 48.4667 122.774 47.9667 122.907 47.4C123.04 46.8167 123.107 46.1917 123.107 45.525ZM125.532 45.525C125.532 46.5083 125.399 47.4167 125.132 48.25C124.882 49.0833 124.507 49.8 124.007 50.4C123.507 51 122.89 51.4667 122.157 51.8C121.44 52.1333 120.615 52.3 119.682 52.3C118.932 52.3 118.265 52.2 117.682 52C117.115 51.8 116.69 51.6083 116.407 51.425V56.625H114.082V39.4C114.632 39.2667 115.315 39.125 116.132 38.975C116.965 38.8083 117.924 38.725 119.007 38.725C120.007 38.725 120.907 38.8833 121.707 39.2C122.507 39.5167 123.19 39.9667 123.757 40.55C124.324 41.1333 124.757 41.85 125.057 42.7C125.374 43.5333 125.532 44.475 125.532 45.525ZM140.279 45.5C140.279 46.5333 140.129 47.4667 139.829 48.3C139.529 49.1333 139.104 49.85 138.554 50.45C138.02 51.05 137.379 51.5167 136.629 51.85C135.879 52.1667 135.062 52.325 134.179 52.325C133.295 52.325 132.479 52.1667 131.729 51.85C130.979 51.5167 130.329 51.05 129.779 50.45C129.245 49.85 128.829 49.1333 128.529 48.3C128.229 47.4667 128.079 46.5333 128.079 45.5C128.079 44.4833 128.229 43.5583 128.529 42.725C128.829 41.875 129.245 41.15 129.779 40.55C130.329 39.95 130.979 39.4917 131.729 39.175C132.479 38.8417 133.295 38.675 134.179 38.675C135.062 38.675 135.879 38.8417 136.629 39.175C137.379 39.4917 138.02 39.95 138.554 40.55C139.104 41.15 139.529 41.875 139.829 42.725C140.129 43.5583 140.279 44.4833 140.279 45.5ZM137.854 45.5C137.854 44.0333 137.52 42.875 136.854 42.025C136.204 41.1583 135.312 40.725 134.179 40.725C133.045 40.725 132.145 41.1583 131.479 42.025C130.829 42.875 130.504 44.0333 130.504 45.5C130.504 46.9667 130.829 48.1333 131.479 49C132.145 49.85 133.045 50.275 134.179 50.275C135.312 50.275 136.204 49.85 136.854 49C137.52 48.1333 137.854 46.9667 137.854 45.5ZM154.2 52H151.875V46.25H145.875V52H143.55V39H145.875V44.3H151.875V39H154.2V52ZM169.673 45.5C169.673 46.5333 169.523 47.4667 169.223 48.3C168.923 49.1333 168.498 49.85 167.948 50.45C167.415 51.05 166.773 51.5167 166.023 51.85C165.273 52.1667 164.457 52.325 163.573 52.325C162.69 52.325 161.873 52.1667 161.123 51.85C160.373 51.5167 159.723 51.05 159.173 50.45C158.64 49.85 158.223 49.1333 157.923 48.3C157.623 47.4667 157.473 46.5333 157.473 45.5C157.473 44.4833 157.623 43.5583 157.923 42.725C158.223 41.875 158.64 41.15 159.173 40.55C159.723 39.95 160.373 39.4917 161.123 39.175C161.873 38.8417 162.69 38.675 163.573 38.675C164.457 38.675 165.273 38.8417 166.023 39.175C166.773 39.4917 167.415 39.95 167.948 40.55C168.498 41.15 168.923 41.875 169.223 42.725C169.523 43.5583 169.673 44.4833 169.673 45.5ZM167.248 45.5C167.248 44.0333 166.915 42.875 166.248 42.025C165.598 41.1583 164.707 40.725 163.573 40.725C162.44 40.725 161.54 41.1583 160.873 42.025C160.223 42.875 159.898 44.0333 159.898 45.5C159.898 46.9667 160.223 48.1333 160.873 49C161.54 49.85 162.44 50.275 163.573 50.275C164.707 50.275 165.598 49.85 166.248 49C166.915 48.1333 167.248 46.9667 167.248 45.5ZM175.219 50.25C175.319 50.2667 175.461 50.2833 175.644 50.3C175.828 50.3167 176.036 50.3333 176.269 50.35C176.503 50.35 176.744 50.3583 176.994 50.375C177.261 50.375 177.511 50.375 177.744 50.375C178.228 50.375 178.686 50.3417 179.119 50.275C179.569 50.2083 179.953 50.0917 180.269 49.925C180.603 49.7583 180.861 49.5417 181.044 49.275C181.244 48.9917 181.344 48.6333 181.344 48.2C181.344 47.7833 181.253 47.4417 181.069 47.175C180.903 46.8917 180.669 46.6667 180.369 46.5C180.069 46.3333 179.711 46.2167 179.294 46.15C178.894 46.0833 178.461 46.05 177.994 46.05H175.219V50.25ZM177.694 44.325C178.144 44.325 178.553 44.3 178.919 44.25C179.303 44.1833 179.628 44.075 179.894 43.925C180.178 43.775 180.394 43.575 180.544 43.325C180.711 43.075 180.794 42.7583 180.794 42.375C180.794 41.975 180.694 41.6583 180.494 41.425C180.294 41.1917 180.028 41.0167 179.694 40.9C179.378 40.7667 179.011 40.6833 178.594 40.65C178.194 40.6 177.786 40.575 177.369 40.575C176.986 40.575 176.594 40.5833 176.194 40.6C175.811 40.6167 175.486 40.6333 175.219 40.65V44.325H177.694ZM177.644 52.225C176.661 52.225 175.753 52.175 174.919 52.075C174.086 51.9917 173.428 51.8917 172.944 51.775V39.125C173.428 39.0083 174.086 38.9083 174.919 38.825C175.753 38.725 176.661 38.675 177.644 38.675C178.328 38.675 178.994 38.7333 179.644 38.85C180.294 38.9667 180.869 39.1667 181.369 39.45C181.869 39.7167 182.269 40.0917 182.569 40.575C182.886 41.0417 183.044 41.625 183.044 42.325C183.044 42.9583 182.886 43.5 182.569 43.95C182.253 44.4 181.828 44.75 181.294 45C182.011 45.25 182.578 45.625 182.994 46.125C183.428 46.6083 183.644 47.2917 183.644 48.175C183.644 48.9583 183.486 49.6083 183.169 50.125C182.869 50.6417 182.444 51.0583 181.894 51.375C181.361 51.6917 180.728 51.9083 179.994 52.025C179.261 52.1583 178.478 52.225 177.644 52.225Z" fill="url(#paint0_linear_421_188)"/>
<defs>
<linearGradient id="paint0_linear_421_188" x1="105" y1="-59" x2="48.2493" y2="86.9303" gradientUnits="userSpaceOnUse">
<stop stop-color="#FF057C"/>
<stop offset="0.505122" stop-color="#8D0B93"/>
<stop offset="1" stop-color="#321575"/>
</linearGradient>
</defs>
</svg>
