<svg width="94" height="94" viewBox="0 0 94 94" fill="none" xmlns="http://www.w3.org/2000/svg">
<g clip-path="url(#clip0_421_164)">
<path d="M90.7946 54.6108H83.1331C82.9699 53.9397 82.5924 53.3155 82.0084 52.8545L54.9758 31.5033C56.0653 29.9346 56.7059 28.0321 56.7059 25.9821C56.7059 22.9878 55.3614 20.2405 53.0957 18.4231V9.27757C53.0957 7.50736 51.6605 6.0722 49.8903 6.0722C48.1201 6.0722 46.6849 7.50736 46.6849 9.27757V20.1575C46.6849 21.374 47.3738 22.4859 48.4632 23.0278C49.5931 23.5896 50.2949 24.7215 50.2949 25.9819C50.2949 26.5328 50.1573 27.0513 49.9173 27.5083L48.9863 26.773C47.8219 25.853 46.1773 25.853 45.013 26.773L44.082 27.5083C43.842 27.0515 43.7043 26.5328 43.7043 25.9819C43.7043 24.2117 42.2691 22.7765 40.4989 22.7765C38.7287 22.7765 37.2936 24.2117 37.2936 25.9819C37.2936 28.0322 37.9341 29.9346 39.0236 31.5031L11.9914 52.8543C11.4076 53.3155 11.0299 53.9397 10.8667 54.6106H3.20536C1.43515 54.6108 0 56.0457 0 57.816V84.7226C0 86.4928 1.43515 87.9279 3.20536 87.9279H10.8531C10.8021 87.7008 10.8076 54.8546 10.8671 54.6108H17.0893C17.1488 54.8546 17.1543 87.7008 17.1032 87.9279H76.8973L76.9113 54.6108H83.1334C83.1929 54.8546 83.1984 87.7008 83.1474 87.9279H90.7952C92.5654 87.9279 94.0005 86.4928 94.0005 84.7226V57.816C94 56.0456 92.5648 54.6108 90.7946 54.6108ZM20.1107 54.6108L44.4886 35.3564C45.2902 35.5713 46.1316 35.6876 47.0002 35.6876C47.8688 35.6876 48.7102 35.5712 49.5117 35.3564L73.8897 54.6108H20.1107Z" fill="url(#paint0_linear_421_164)"/>
</g>
<defs>
<linearGradient id="paint0_linear_421_164" x1="47.0003" y1="-34.8557" x2="-34.0784" y2="58.2525" gradientUnits="userSpaceOnUse">
<stop stop-color="#FF057C"/>
<stop offset="0.505122" stop-color="#8D0B93"/>
<stop offset="1" stop-color="#321575"/>
</linearGradient>
<clipPath id="clip0_421_164">
<rect width="94" height="94" fill="white"/>
</clipPath>
</defs>
</svg>
