<svg width="180" height="53" viewBox="0 0 180 53" fill="none" xmlns="http://www.w3.org/2000/svg">
<g clip-path="url(#clip0_421_253)">
<path d="M0 7.06667C0 3.16385 3.18533 0 7.11462 0H172.885C176.815 0 180 3.16386 180 7.06667V45.9333C180 49.8363 176.815 53 172.885 53H7.11462C3.18532 53 0 49.8363 0 45.9333V7.06667Z" fill="black"/>
<path fill-rule="evenodd" clip-rule="evenodd" d="M0 45.9333V7.06667C0 3.16386 3.18532 0 7.11462 0H172.885C176.815 0 180 3.16385 180 7.06667V45.9333C180 49.8363 176.815 53 172.885 53H7.11462C3.18533 53 0 49.8363 0 45.9333ZM1.06719 45.9333V7.06667C1.06719 3.74929 3.77474 1.06 7.11462 1.06H172.885C176.225 1.06 178.933 3.74929 178.933 7.06667V45.9333C178.933 49.2508 176.225 51.94 172.885 51.94H7.11462C3.77474 51.94 1.06719 49.2508 1.06719 45.9333Z" fill="white" fill-opacity="0.3"/>
<path d="M91.205 28.793C88.0016 28.793 85.355 31.2777 85.355 34.6845C85.355 38.0635 87.9739 40.5761 91.205 40.5761C94.4361 40.5761 97.0546 38.0911 97.0546 34.6845C97.0546 31.2777 94.4361 28.793 91.205 28.793ZM91.205 38.2317C89.4495 38.2317 87.9184 36.7513 87.9184 34.6582C87.9184 32.5361 89.4505 31.0848 91.205 31.0848C92.9591 31.0848 94.4912 32.5361 94.4912 34.6582C94.4912 36.7513 92.9591 38.2317 91.205 38.2317ZM78.4744 28.793C75.2433 28.793 72.6244 31.2777 72.6244 34.6845C72.6244 38.0635 75.2433 40.5761 78.4744 40.5761C81.7055 40.5761 84.3244 38.0911 84.3244 34.6845C84.3244 31.2777 81.7055 28.793 78.4741 28.793H78.4744ZM78.4744 38.2317C76.7189 38.2317 75.1882 36.7513 75.1882 34.6582C75.1882 32.5361 76.7203 31.0848 78.4744 31.0848C80.23 31.0848 81.761 32.5361 81.761 34.6582C81.761 36.7513 80.2559 38.2317 78.4744 38.2317ZM63.3484 30.6081V33.0928H69.2535C69.0856 34.4888 68.6136 35.522 67.9167 36.2206C67.0533 37.0859 65.7161 38.0356 63.3484 38.0356C59.6986 38.0356 56.8862 35.0761 56.8862 31.418C56.8862 27.7599 59.7 24.7444 63.3484 24.7444C65.3255 24.7444 66.747 25.5265 67.8057 26.5321L69.5598 24.7722C68.0828 23.3487 66.1057 22.26 63.3484 22.26C58.3614 22.26 54.1826 26.3639 54.1826 31.3624C54.1826 36.3612 58.3614 40.4652 63.3484 40.4652C66.0502 40.4652 68.0565 39.5719 69.6719 37.8957C71.3153 36.2485 71.8166 33.9302 71.8166 32.0597C71.8166 31.4736 71.7614 30.9429 71.6771 30.4959L63.3484 30.6081ZM125.245 32.5346C124.771 31.222 123.268 28.793 120.258 28.793C117.249 28.793 114.77 31.1667 114.77 34.6845C114.77 37.9787 117.249 40.5761 120.537 40.5761C123.211 40.5761 124.744 38.9289 125.384 37.9787L123.407 36.6386C122.737 37.6166 121.847 38.2579 120.537 38.2579C119.228 38.2579 118.309 37.6717 117.723 36.4707L125.495 33.2041L125.245 32.5346ZM117.334 34.5178C117.278 32.2554 119.089 31.0832 120.369 31.0832C121.401 31.0832 122.236 31.5859 122.542 32.3401L117.334 34.5178ZM111.01 40.1857H113.573V22.9293H111.01V40.1857ZM106.833 30.1055H106.749C106.165 29.4069 105.079 28.793 103.685 28.793C100.76 28.793 98.1133 31.3902 98.1133 34.6845C98.1133 37.9787 100.787 40.5485 103.685 40.5485C105.077 40.5485 106.163 39.9341 106.749 39.208H106.833V40.0454C106.833 42.3081 105.634 43.5077 103.712 43.5077C102.152 43.5077 101.177 42.3633 100.787 41.4135L98.5597 42.3633C99.1993 43.9271 100.9 45.8535 103.712 45.8535C106.721 45.8535 109.256 44.0663 109.256 39.7387V29.1556H106.833V30.1055ZM103.908 38.2317C102.152 38.2317 100.677 36.7513 100.677 34.686C100.677 32.6208 102.154 31.1123 103.908 31.1123C105.636 31.1123 107.028 32.6208 107.028 34.686C107.027 36.7234 105.634 38.2317 103.908 38.2317ZM137.196 22.9296H131.068V40.1857H133.631V33.6511H137.196C140.038 33.6511 142.823 31.5843 142.823 28.2903C142.823 24.996 140.038 22.9293 137.196 22.9293V22.9296ZM137.279 31.2514H133.657V25.3305H137.279C139.173 25.3305 140.287 26.9222 140.287 28.29C140.26 29.6304 139.174 31.2514 137.279 31.2514ZM153.046 28.7651C151.208 28.7651 149.286 29.575 148.506 31.418L150.763 32.3679C151.265 31.418 152.156 31.111 153.103 31.111C154.44 31.111 155.777 31.9206 155.805 33.3441V33.5123C155.331 33.2332 154.357 32.8415 153.131 32.8415C150.68 32.8415 148.2 34.2097 148.2 36.7234C148.2 39.0412 150.206 40.5206 152.434 40.5206C154.162 40.5206 155.108 39.7387 155.693 38.8176H155.776V40.1581H158.255V33.5398C158.227 30.4968 155.971 28.7648 153.046 28.7648V28.7651ZM152.74 38.2038C151.904 38.2038 150.734 37.7844 150.734 36.7523C150.734 35.4121 152.182 34.9095 153.436 34.9095C154.55 34.9095 155.079 35.1608 155.776 35.4955C155.581 37.0873 154.216 38.2038 152.74 38.2038ZM167.197 29.1571L164.272 36.6121H164.189L161.154 29.1568H158.396L162.964 39.5995L160.373 45.4355H163.047L170.039 29.1568H167.197L167.197 29.1571ZM144.244 40.1857H146.807V22.9293H144.244V40.1857Z" fill="white"/>
<path d="M61.9266 14.8413V17.4037H60.8609V15.8999H55.9603V17.4037H54.8945V14.8413H55.6914C55.9571 14.472 56.1531 13.941 56.279 13.2485C56.4053 12.5494 56.4683 11.7909 56.4683 10.973V8.81628H61.1397V14.8413H61.9266ZM60.0242 14.8413V9.87487H57.5739V11.161C57.5739 11.8997 57.5141 12.5856 57.3946 13.2188C57.2818 13.852 57.1093 14.3928 56.8767 14.8413H60.0242Z" fill="white"/>
<path d="M66.4502 16.0583C65.7594 16.0583 65.1319 15.8967 64.5677 15.5735C64.0031 15.2438 63.5581 14.7952 63.2326 14.228C62.9139 13.6608 62.7549 13.0375 62.7549 12.3582C62.7549 11.6788 62.9139 11.0589 63.2326 10.4982C63.5581 9.93104 64.0031 9.48251 64.5677 9.15275C65.1319 8.82298 65.7594 8.65808 66.4502 8.65808C67.1407 8.65808 67.765 8.82298 68.3228 9.15275C68.887 9.48251 69.332 9.93104 69.6571 10.4982C69.9826 11.0589 70.1456 11.6788 70.1456 12.3582C70.1456 13.0375 69.9826 13.6608 69.6571 14.228C69.3384 14.7952 68.8969 15.2438 68.3327 15.5735C67.7682 15.8967 67.1407 16.0583 66.4502 16.0583ZM66.4502 14.9997C66.9216 14.9997 67.3531 14.8876 67.7451 14.6633C68.1367 14.4391 68.4455 14.1291 68.6714 13.7334C68.8969 13.331 69.0097 12.8726 69.0097 12.3582C69.0097 11.8437 68.8969 11.3886 68.6714 10.9929C68.4455 10.5906 68.1367 10.2773 67.7451 10.053C67.3531 9.82878 66.9216 9.71667 66.4502 9.71667C65.9785 9.71667 65.547 9.82878 65.155 10.053C64.7633 10.2773 64.4514 10.5906 64.2187 10.9929C63.9932 11.3886 63.8801 11.8437 63.8801 12.3582C63.8801 12.8726 63.9932 13.331 64.2187 13.7334C64.4514 14.1291 64.7633 14.4391 65.155 14.6633C65.547 14.8876 65.9785 14.9997 66.4502 14.9997Z" fill="white"/>
<path d="M74.6891 16.0583C73.9983 16.0583 73.3675 15.8967 72.7966 15.5735C72.2253 15.2503 71.7771 14.8051 71.4519 14.2379C71.1264 13.6707 70.9639 13.0441 70.9639 12.3582C70.9639 11.6723 71.1264 11.0457 71.4519 10.4785C71.7771 9.91125 72.2253 9.46605 72.7966 9.14285C73.3675 8.81966 73.9983 8.65808 74.6891 8.65808C75.227 8.65808 75.715 8.75701 76.1533 8.95488C76.5979 9.15275 76.99 9.43965 77.3286 9.8156L76.5318 10.5774C76.286 10.2872 76.0138 10.0728 75.715 9.93432C75.4162 9.78921 75.074 9.71667 74.6891 9.71667C74.211 9.71667 73.7727 9.82549 73.3743 10.0431C72.9823 10.2608 72.6703 10.5708 72.438 10.9731C72.2054 11.3689 72.0894 11.8306 72.0894 12.3582C72.0894 12.8858 72.2054 13.3508 72.438 13.7531C72.6703 14.1489 72.9823 14.4556 73.3743 14.6732C73.7727 14.8909 74.211 14.9997 74.6891 14.9997C75.4859 14.9997 76.1632 14.6699 76.721 14.0104L77.5278 14.7821C77.1824 15.1844 76.7673 15.4977 76.2828 15.7219C75.7979 15.9462 75.2668 16.0583 74.6891 16.0583Z" fill="white"/>
<path d="M80.2177 9.87487H78.2256V8.81628H83.3253V9.87487H81.3333V15.8999H80.2177V9.87487Z" fill="white"/>
<path d="M85.1726 16.0582C84.9268 16.0582 84.7176 16.0153 84.5451 15.9296V14.8512C84.7642 14.9699 84.9634 15.0293 85.1427 15.0293C85.322 15.0293 85.4646 14.9963 85.571 14.9304C85.6774 14.8578 85.7734 14.7259 85.8599 14.5346L86.1089 14.0202L83.7383 8.81628H84.9833L86.6467 12.7439H86.7065L88.3799 8.81628H89.6249L86.8957 14.7721C86.6965 15.214 86.4543 15.5405 86.1686 15.7515C85.8897 15.956 85.5578 16.0582 85.1726 16.0582Z" fill="white"/>
<path d="M90.5918 8.81628H95.9007V15.8999H94.7852V9.87487H91.7074V15.8999H90.5918V8.81628Z" fill="white"/>
<path d="M97.5273 8.81628H98.6429V11.7546H101.95V8.81628H103.055V15.8999H101.95V12.8033H98.6429V15.8999H97.5273V8.81628Z" fill="white"/>
<path d="M107.926 16.0583C107.235 16.0583 106.608 15.8967 106.043 15.5735C105.479 15.2438 105.034 14.7952 104.709 14.228C104.39 13.6608 104.23 13.0375 104.23 12.3582C104.23 11.6788 104.39 11.0589 104.709 10.4982C105.034 9.93104 105.479 9.48251 106.043 9.15275C106.608 8.82298 107.235 8.65808 107.926 8.65808C108.617 8.65808 109.241 8.82298 109.798 9.15275C110.363 9.48251 110.808 9.93104 111.133 10.4982C111.459 11.0589 111.621 11.6788 111.621 12.3582C111.621 13.0375 111.459 13.6608 111.133 14.228C110.814 14.7952 110.373 15.2438 109.808 15.5735C109.244 15.8967 108.617 16.0583 107.926 16.0583ZM107.926 14.9997C108.398 14.9997 108.829 14.8876 109.221 14.6633C109.613 14.4391 109.921 14.1291 110.147 13.7334C110.373 13.331 110.486 12.8726 110.486 12.3582C110.486 11.8437 110.373 11.3886 110.147 10.9929C109.921 10.5906 109.613 10.2773 109.221 10.053C108.829 9.82878 108.398 9.71667 107.926 9.71667C107.454 9.71667 107.023 9.82878 106.631 10.053C106.239 10.2773 105.927 10.5906 105.695 10.9929C105.469 11.3886 105.356 11.8437 105.356 12.3582C105.356 12.8726 105.469 13.331 105.695 13.7334C105.927 14.1291 106.239 14.4391 106.631 14.6633C107.023 14.8876 107.454 14.9997 107.926 14.9997Z" fill="white"/>
<path d="M115.23 8.81628H117.91C118.288 8.81628 118.637 8.89872 118.956 9.06362C119.281 9.22852 119.54 9.45606 119.733 9.74626C119.925 10.0365 120.021 10.3564 120.021 10.7059C120.021 11.0555 119.932 11.3589 119.753 11.6161C119.58 11.8733 119.351 12.0679 119.065 12.1998V12.2592C119.424 12.3845 119.713 12.5923 119.932 12.8824C120.158 13.1726 120.27 13.5123 120.27 13.9015C120.27 14.2906 120.168 14.6369 119.962 14.9403C119.762 15.2437 119.49 15.4811 119.145 15.6526C118.806 15.8175 118.435 15.8999 118.029 15.8999H115.23V8.81628ZM117.86 11.7843C118.179 11.7843 118.435 11.6854 118.627 11.4875C118.826 11.2896 118.926 11.0621 118.926 10.8048C118.926 10.5476 118.83 10.3234 118.637 10.1321C118.451 9.93423 118.205 9.8353 117.9 9.8353H116.346V11.7843H117.86ZM118.029 14.871C118.368 14.871 118.637 14.7655 118.836 14.5544C119.042 14.3434 119.145 14.0993 119.145 13.8223C119.145 13.5387 119.039 13.2947 118.826 13.0902C118.621 12.8792 118.342 12.7736 117.99 12.7736H116.346V14.871H118.029Z" fill="white"/>
<path d="M37.9533 32.1825C42.2153 29.8365 45.4464 28.0492 45.725 27.9104C46.6157 27.4353 47.536 26.1784 45.725 25.2022C45.1401 24.8953 41.9923 23.1633 37.9533 20.9302L32.3545 26.5979L37.953 32.1825H37.9533Z" fill="#FFD900"/>
<path d="M32.3543 26.598L14.5264 44.6087C14.9446 44.6642 15.417 44.5529 15.9743 44.2459C17.1437 43.6046 29.54 36.8184 37.9534 32.1838L32.3543 26.598Z" fill="#F43249"/>
<path d="M32.3554 26.5979L37.9538 20.9577C37.9538 20.9577 17.2292 9.62072 15.975 8.95176C15.5032 8.67047 14.9737 8.58733 14.5 8.67047L32.3554 26.5976V26.5979Z" fill="#00EE76"/>
<path d="M32.355 26.5979L14.4993 8.67078C13.7746 8.83865 13.1621 9.48037 13.1621 10.7923V42.4862C13.1621 43.6875 13.6361 44.5528 14.5267 44.6359L32.3547 26.5976L32.355 26.5979Z" fill="#00D3FF"/>
</g>
<defs>
<clipPath id="clip0_421_253">
<rect width="180" height="53" fill="white"/>
</clipPath>
</defs>
</svg>
