<svg width="180" height="53" viewBox="0 0 180 53" fill="none" xmlns="http://www.w3.org/2000/svg">
<g clip-path="url(#clip0_421_270)">
<path d="M0 7.06667C0 3.16385 3.18533 0 7.11462 0H172.885C176.815 0 180 3.16386 180 7.06667V45.9333C180 49.8363 176.815 53 172.885 53H7.11462C3.18532 53 0 49.8363 0 45.9333V7.06667Z" fill="black"/>
<path fill-rule="evenodd" clip-rule="evenodd" d="M0 45.9333V7.06667C0 3.16386 3.18532 0 7.11462 0H172.885C176.815 0 180 3.16385 180 7.06667V45.9333C180 49.8363 176.815 53 172.885 53H7.11462C3.18533 53 0 49.8363 0 45.9333ZM1.06719 45.9333V7.06667C1.06719 3.74929 3.77474 1.06 7.11462 1.06H172.885C176.225 1.06 178.933 3.74929 178.933 7.06667V45.9333C178.933 49.2508 176.225 51.94 172.885 51.94H7.11462C3.77474 51.94 1.06719 49.2508 1.06719 45.9333Z" fill="white" fill-opacity="0.3"/>
<path d="M40.6763 27.5795C40.6578 24.4732 42.0747 22.132 44.9362 20.4058C43.3358 18.1285 40.9147 16.8759 37.7231 16.6345C34.7011 16.3977 31.3949 18.3835 30.1843 18.3835C28.9049 18.3835 25.9793 16.7165 23.6774 16.7165C18.9267 16.7894 13.8779 20.4787 13.8779 27.9848C13.8779 30.203 14.2861 32.494 15.1023 34.8533C16.1937 37.9597 20.1281 45.5705 24.2322 45.4475C26.3783 45.3973 27.8961 43.9352 30.6887 43.9352C33.3988 43.9352 34.802 45.4475 37.1959 45.4475C41.3366 45.3881 44.895 38.4699 45.9312 35.3542C40.3782 32.7536 40.6763 27.7389 40.6763 27.5795ZM35.8565 13.6877C38.1816 10.9457 37.9706 8.44978 37.902 7.55249C35.8476 7.67093 33.4722 8.94166 32.1194 10.5039C30.6291 12.1801 29.7533 14.2524 29.9413 16.589C32.1607 16.7575 34.1875 15.6234 35.8565 13.6877Z" fill="white"/>
<path d="M65.7229 38.3537H63.3676L62.0774 34.3084H57.5934L56.3643 38.3537H54.0713L58.514 24.5817H61.2581L65.7229 38.3537ZM61.6886 32.6112L60.5218 29.015C60.3987 28.6476 60.1671 27.7825 59.826 26.4206H59.7847C59.6488 27.0064 59.43 27.8715 59.1291 29.015L57.9833 32.6112H61.6886Z" fill="white"/>
<path d="M77.1478 33.2663C77.1478 34.9552 76.6907 36.2902 75.7758 37.2703C74.9565 38.1427 73.9392 38.5783 72.7247 38.5783C71.4138 38.5783 70.4722 38.1084 69.8988 37.1689H69.8571V42.4H67.6463V31.6923C67.6463 30.6305 67.6182 29.5408 67.5645 28.4231H69.5089L69.6323 29.9971H69.6736C70.411 28.8112 71.5301 28.2192 73.0317 28.2192C74.2056 28.2192 75.1856 28.6818 75.9697 29.608C76.7558 30.5353 77.1478 31.7543 77.1478 33.2663ZM74.8954 33.347C74.8954 32.3804 74.6777 31.5836 74.2401 30.9564C73.762 30.3024 73.1199 29.9754 72.3152 29.9754C71.7696 29.9754 71.274 30.1576 70.8311 30.5166C70.3872 30.8788 70.0969 31.3518 69.961 31.9375C69.8927 32.2107 69.8582 32.4343 69.8582 32.6102V34.2659C69.8582 34.9883 70.0802 35.598 70.5241 36.0955C70.9681 36.5933 71.5447 36.8417 72.2541 36.8417C73.0868 36.8417 73.735 36.5209 74.1985 35.8813C74.6631 35.2408 74.8954 34.3964 74.8954 33.347Z" fill="white"/>
<path d="M88.5944 33.2663C88.5944 34.9552 88.1369 36.2902 87.2213 37.2703C86.4031 38.1427 85.3857 38.5783 84.1712 38.5783C82.8604 38.5783 81.9188 38.1084 81.3464 37.1689H81.3048V42.4H79.0939V31.6923C79.0939 30.6305 79.0658 29.5408 79.0117 28.4231H80.9565L81.0796 29.9971H81.1212C81.8576 28.8112 82.9767 28.2192 84.4793 28.2192C85.6522 28.2192 86.6322 28.6818 87.4184 29.608C88.2013 30.5353 88.5944 31.7543 88.5944 33.2663ZM86.3419 33.347C86.3419 32.3804 86.1231 31.5836 85.6856 30.9564C85.2075 30.3024 84.5675 29.9754 83.7618 29.9754C83.215 29.9754 82.7206 30.1576 82.2766 30.5166C81.8327 30.8788 81.5435 31.3518 81.4076 31.9375C81.34 32.2107 81.3048 32.4343 81.3048 32.6102V34.2659C81.3048 34.9883 81.5267 35.598 81.9686 36.0955C82.4125 36.5922 82.9891 36.8417 83.7006 36.8417C84.5334 36.8417 85.1815 36.5209 85.645 35.8813C86.1096 35.2408 86.3419 34.3964 86.3419 33.347Z" fill="white"/>
<path d="M101.392 34.4917C101.392 35.663 100.984 36.6163 100.166 37.3519C99.2674 38.1561 98.0156 38.5575 96.407 38.5575C94.9218 38.5575 93.7311 38.272 92.8301 37.6996L93.3423 35.8609C94.3131 36.4467 95.3782 36.7403 96.5386 36.7403C97.3713 36.7403 98.0195 36.552 98.4851 36.1775C98.9487 35.8029 99.1802 35.2999 99.1802 34.6728C99.1802 34.1139 98.9892 33.6431 98.6064 33.2612C98.2258 32.8793 97.5901 32.5244 96.7026 32.1963C94.2861 31.297 93.0791 29.9797 93.0791 28.2473C93.0791 27.1152 93.5021 26.1869 94.3494 25.4645C95.1936 24.7412 96.3198 24.38 97.7281 24.38C98.9842 24.38 100.027 24.5984 100.86 25.034L100.308 26.8326C99.5296 26.4104 98.6502 26.1993 97.6659 26.1993C96.8883 26.1993 96.2803 26.3908 95.8449 26.7716C95.4767 27.112 95.2921 27.527 95.2921 28.0186C95.2921 28.5629 95.5027 29.0131 95.9256 29.367C96.2938 29.694 96.963 30.048 97.9334 30.4298C99.1208 30.9069 99.9931 31.4647 100.554 32.1042C101.113 32.7417 101.392 33.5396 101.392 34.4917Z" fill="white"/>
<path d="M108.702 30.0791H106.265V34.9005C106.265 36.1269 106.694 36.7396 107.555 36.7396C107.951 36.7396 108.278 36.7053 108.537 36.6371L108.599 38.3126C108.163 38.4748 107.589 38.5568 106.879 38.5568C106.006 38.5568 105.323 38.2907 104.831 37.76C104.34 37.2279 104.094 36.3357 104.094 35.0827V30.077H102.642V28.4212H104.094V26.603L106.265 25.949V28.4212H108.702V30.0791Z" fill="white"/>
<path d="M119.699 33.3066C119.699 34.833 119.261 36.0862 118.388 37.0664C117.472 38.0751 116.257 38.5783 114.741 38.5783C113.281 38.5783 112.119 38.0949 111.252 37.1282C110.384 36.1618 109.951 34.9417 109.951 33.4711C109.951 31.9323 110.397 30.6718 111.292 29.6918C112.185 28.7107 113.39 28.2202 114.905 28.2202C116.365 28.2202 117.54 28.7035 118.427 29.6711C119.276 30.6097 119.699 31.8216 119.699 33.3066ZM117.404 33.378C117.404 32.4621 117.208 31.6767 116.811 31.0216C116.348 30.2289 115.685 29.8336 114.826 29.8336C113.937 29.8336 113.262 30.2299 112.799 31.0216C112.402 31.6777 112.206 32.4756 112.206 33.4194C112.206 34.3352 112.402 35.1207 112.799 35.7746C113.277 36.5675 113.945 36.9628 114.807 36.9628C115.651 36.9628 116.313 36.5593 116.792 35.7541C117.199 35.0865 117.404 34.2928 117.404 33.378Z" fill="white"/>
<path d="M126.886 30.3635C126.667 30.3231 126.434 30.3024 126.189 30.3024C125.411 30.3024 124.81 30.5953 124.386 31.182C124.018 31.6995 123.834 32.3535 123.834 33.1431V38.3536H121.624L121.644 31.5505C121.644 30.4059 121.616 29.3638 121.562 28.4241H123.487L123.568 30.3242H123.629C123.863 29.6712 124.231 29.1454 124.735 28.7511C125.227 28.3962 125.76 28.2192 126.333 28.2192C126.537 28.2192 126.722 28.2337 126.886 28.2596V30.3635Z" fill="white"/>
<path d="M136.774 32.9186C136.774 33.3139 136.748 33.6472 136.693 33.9193H130.06C130.086 34.9004 130.406 35.6506 131.022 36.1682C131.581 36.6308 132.304 36.8625 133.192 36.8625C134.174 36.8625 135.07 36.7064 135.876 36.3926L136.222 37.9243C135.281 38.3342 134.169 38.5381 132.886 38.5381C131.343 38.5381 130.132 38.0847 129.25 37.1791C128.37 36.2735 127.93 35.0577 127.93 33.5323C127.93 32.0348 128.339 30.7878 129.16 29.7933C130.019 28.7316 131.179 28.2007 132.639 28.2007C134.074 28.2007 135.159 28.7316 135.897 29.7933C136.48 30.6367 136.774 31.6799 136.774 32.9186ZM134.666 32.3463C134.68 31.6923 134.536 31.1273 134.236 30.6502C133.854 30.0365 133.266 29.7302 132.474 29.7302C131.751 29.7302 131.163 30.0293 130.714 30.6295C130.346 31.1066 130.127 31.6789 130.06 32.3453H134.666V32.3463Z" fill="white"/>
<path d="M56.35 15.8834H57.4894C58.59 15.8834 59.235 16.3748 59.235 17.2029V17.2139C59.235 17.9813 58.5566 18.4837 57.5229 18.4837C56.4667 18.4837 55.7944 18.0696 55.7054 17.3354L55.6997 17.2912H54.4824L54.4881 17.3575C54.5714 18.6714 55.7499 19.5658 57.5229 19.5658C59.2403 19.5658 60.5078 18.5831 60.5078 17.2691V17.2581C60.5078 16.1871 59.8461 15.4307 58.7736 15.2982V15.254C59.6629 15.0498 60.2631 14.31 60.2631 13.4266V13.4156C60.2631 12.1845 59.1624 11.3342 57.5506 11.3342C55.8719 11.3342 54.777 12.1568 54.6937 13.5039L54.688 13.5812H55.8833L55.8886 13.5039C55.9832 12.8193 56.567 12.4163 57.5118 12.4163C58.4734 12.4163 59.0294 12.8414 59.0294 13.5481V13.5591C59.0294 14.321 58.4122 14.8455 57.4563 14.8455H56.35V15.8834Z" fill="white"/>
<path d="M64.5332 19.5383C65.3112 19.5383 65.9839 19.1408 66.3229 18.5169H66.3507V19.4333H67.5512V15.4308C67.5512 14.2658 66.6452 13.515 65.2169 13.515C63.7773 13.515 62.9047 14.2824 62.8211 15.2817L62.8157 15.3424H63.9495L63.9605 15.2927C64.0608 14.829 64.4888 14.5033 65.1835 14.5033C65.9284 14.5033 66.3507 14.8897 66.3507 15.5301V15.9663L64.7555 16.0601C63.3714 16.1429 62.582 16.7613 62.582 17.7716V17.7826C62.582 18.826 63.3657 19.5383 64.5332 19.5383ZM63.794 17.755V17.744C63.794 17.2526 64.1942 16.9379 64.9167 16.8938L66.3507 16.8054V17.2582C66.3507 18.0145 65.7061 18.5832 64.8612 18.5832C64.2163 18.5832 63.794 18.2629 63.794 17.755Z" fill="white"/>
<path d="M73.9452 14.5749V13.6254H70.0713V19.4333H71.2719V14.5749H73.9452Z" fill="white"/>
<path d="M76.2031 21.3657H77.4037V18.4562H77.4315C77.7762 19.1297 78.4489 19.5493 79.277 19.5493C80.7444 19.5493 81.7059 18.3844 81.7059 16.5349V16.5294C81.7059 14.6744 80.7497 13.515 79.2603 13.515C78.4264 13.515 77.7819 13.9346 77.4315 14.6247H77.4037V13.6254H76.2031V21.3657ZM78.949 18.5224C78.043 18.5224 77.3984 17.7384 77.3984 16.5349V16.5294C77.3984 15.3203 78.0373 14.5364 78.949 14.5364C79.8938 14.5364 80.4829 15.2927 80.4829 16.5294V16.5349C80.4829 17.7605 79.8938 18.5224 78.949 18.5224Z" fill="white"/>
<path d="M84.5257 21.3711C85.6708 21.3711 86.2823 20.9074 86.7159 19.7038L88.8948 13.6254H87.6273L86.1542 18.3512H86.1154L84.6423 13.6254H83.3418L85.4708 19.4388L85.3705 19.7149C85.1706 20.278 84.8593 20.427 84.2923 20.427C84.1312 20.427 83.9921 20.4049 83.8978 20.3829V21.3159C84.0422 21.3435 84.2923 21.3711 84.5257 21.3711Z" fill="white"/>
<path d="M93.0201 19.5493C94.4541 19.5493 95.4046 18.826 95.4046 17.744V17.7329C95.4046 17.0539 94.982 16.5901 94.2093 16.4355V16.3914C94.8375 16.2478 95.2434 15.7565 95.2434 15.1326V15.1216C95.2434 14.1278 94.4206 13.515 93.0756 13.515C91.7583 13.515 90.8967 14.1333 90.7577 15.1658L90.7523 15.2099H91.8971L91.9028 15.1713C91.9917 14.7296 92.4307 14.4591 93.0589 14.4591C93.6924 14.4591 94.0706 14.7517 94.0706 15.2485V15.2596C94.0706 15.7785 93.7092 16.0435 93.0034 16.0435H92.1639V16.9103H93.0087C93.8205 16.9103 94.2093 17.1753 94.2093 17.7329V17.744C94.2093 18.274 93.7536 18.5997 93.0144 18.5997C92.3531 18.5997 91.9195 18.3458 91.7861 17.8765L91.7694 17.8213H90.5908L90.5965 17.8709C90.7132 18.8978 91.6527 19.5493 93.0201 19.5493Z" fill="white"/>
<path d="M97.7129 19.4333H98.8968L101.581 15.3534H101.631V19.4333H102.826V13.6254H101.642L98.9579 17.6887H98.9021V13.6254H97.7129V19.4333Z" fill="white"/>
<path d="M109.815 13.6254H104.952V14.5749H106.781V19.4333H107.987V14.5749H109.815V13.6254Z" fill="white"/>
<path d="M114.33 19.5493C115.748 19.5493 116.654 18.7101 116.837 17.7882L116.854 17.7274H115.709L115.692 17.7716C115.542 18.2077 115.07 18.5721 114.358 18.5721C113.402 18.5721 112.796 17.9317 112.774 16.833H116.915V16.43C116.915 14.6854 115.909 13.515 114.269 13.515C112.629 13.515 111.573 14.7296 111.573 16.5459V16.5515C111.573 18.3844 112.613 19.5493 114.33 19.5493ZM114.275 14.4922C115.058 14.4922 115.631 14.9835 115.725 15.9883H112.791C112.902 15.0167 113.497 14.4922 114.275 14.4922Z" fill="white"/>
<path d="M122.765 19.4333H125.455C126.722 19.4333 127.512 18.7818 127.512 17.766V17.7549C127.512 17.0428 127.011 16.5238 126.255 16.4244V16.3803C126.817 16.2754 127.25 15.7288 127.25 15.127V15.116C127.25 14.194 126.561 13.6254 125.422 13.6254H122.765V19.4333ZM123.954 16.0214V14.5087H125.172C125.75 14.5087 126.061 14.7682 126.061 15.2485V15.2595C126.061 15.773 125.727 16.0214 125.049 16.0214H123.954ZM123.954 18.5499V16.8882H125.094C125.883 16.8882 126.277 17.1476 126.277 17.7053V17.7163C126.277 18.2684 125.911 18.5499 125.233 18.5499H123.954Z" fill="white"/>
</g>
<defs>
<clipPath id="clip0_421_270">
<rect width="180" height="53" fill="white"/>
</clipPath>
</defs>
</svg>
