<svg width="94" height="94" viewBox="0 0 94 94" fill="none" xmlns="http://www.w3.org/2000/svg">
<path d="M46.9998 47C49.154 47 50.9987 46.2323 52.5341 44.697C54.0668 43.1643 54.8331 41.3208 54.8331 39.1667C54.8331 37.0125 54.0668 35.1677 52.5341 33.6324C50.9987 32.0997 49.154 31.3333 46.9998 31.3333C44.8456 31.3333 43.0022 32.0997 41.4695 33.6324C39.9341 35.1677 39.1665 37.0125 39.1665 39.1667C39.1665 41.3208 39.9341 43.1643 41.4695 44.697C43.0022 46.2323 44.8456 47 46.9998 47ZM46.9998 84.698C46.4776 84.698 45.9554 84.6 45.4331 84.4042C44.9109 84.2084 44.454 83.9473 44.0623 83.6209C34.5318 75.2 27.4165 67.3837 22.7165 60.1718C18.0165 52.9573 15.6665 46.2167 15.6665 39.95C15.6665 30.1583 18.8168 22.3576 25.1174 16.5479C31.4154 10.7382 38.7095 7.83331 46.9998 7.83331C55.2901 7.83331 62.5842 10.7382 68.8822 16.5479C75.1828 22.3576 78.3331 30.1583 78.3331 39.95C78.3331 46.2167 75.9831 52.9573 71.2831 60.1718C66.5831 67.3837 59.4678 75.2 49.9373 83.6209C49.5456 83.9473 49.0887 84.2084 48.5665 84.4042C48.0442 84.6 47.522 84.698 46.9998 84.698Z" fill="url(#paint0_linear_421_161)"/>
<defs>
<linearGradient id="paint0_linear_421_161" x1="46.9998" y1="-30.599" x2="-28.2894" y2="30.7832" gradientUnits="userSpaceOnUse">
<stop stop-color="#FF057C"/>
<stop offset="0.505122" stop-color="#8D0B93"/>
<stop offset="1" stop-color="#321575"/>
</linearGradient>
</defs>
</svg>
