<svg width="180" height="67" viewBox="0 0 180 67" fill="none" xmlns="http://www.w3.org/2000/svg">
<path fill-rule="evenodd" clip-rule="evenodd" d="M39.3809 0H48.4689L33.6589 29.1881H44.4298L63.6154 67H54.5275L24.1281 37.8119H0L39.3809 0ZM102.566 18.9509C102.566 19.5788 102.443 20.1653 102.197 20.7106C101.966 21.2558 101.646 21.735 101.235 22.148C100.824 22.5446 100.339 22.8668 99.7806 23.1146C99.2383 23.3459 98.6548 23.4616 98.0303 23.4616C97.4058 23.4616 96.8141 23.3459 96.2553 23.1146C95.713 22.8668 95.2364 22.5446 94.8255 22.148C94.431 21.735 94.1106 21.2558 93.864 20.7106C93.6339 20.1653 93.5189 19.5788 93.5189 18.9509C93.5189 18.3396 93.6339 17.7613 93.864 17.216C94.1106 16.6543 94.431 16.1751 94.8255 15.7786C95.2364 15.3655 95.713 15.0433 96.2553 14.812C96.8141 14.5641 97.4058 14.4402 98.0303 14.4402C98.6548 14.4402 99.2383 14.5642 99.7806 14.812C100.339 15.0433 100.824 15.3655 101.235 15.7786C101.646 16.1751 101.966 16.6543 102.197 17.216C102.443 17.7613 102.566 18.3396 102.566 18.9509ZM101.408 52.7067H94.6283V26.163H101.408V52.7067ZM91.6453 52.7067H66.8941V17.1665H73.9694V45.5937H91.6453V52.7067ZM106.56 52.7067H113.29V37.5389C113.29 36.8449 113.422 36.1923 113.685 35.581C113.948 34.9531 114.309 34.4078 114.769 33.9452C115.23 33.4826 115.772 33.1191 116.396 32.8547C117.021 32.5903 117.687 32.4582 118.393 32.4582C119.084 32.4582 119.733 32.5903 120.341 32.8547C120.949 33.1191 121.483 33.4826 121.943 33.9452C122.403 34.4078 122.765 34.9531 123.028 35.581C123.291 36.1923 123.422 36.8449 123.422 37.5389V52.7067H130.153V37.5389C130.153 35.9031 129.84 34.3665 129.216 32.9291C128.608 31.4751 127.769 30.2111 126.701 29.1371C125.633 28.0466 124.384 27.1957 122.954 26.5844C121.524 25.9565 120.004 25.6426 118.393 25.6426C116.898 25.6426 115.46 25.9152 114.079 26.4605C112.715 26.9892 111.491 27.7492 110.406 28.7406L108.187 26.163H106.56V52.7067ZM147.853 52.7067C146.226 52.7067 144.698 52.401 143.268 51.7897C141.838 51.1618 140.581 50.3109 139.496 49.2369C138.428 48.1464 137.581 46.8824 136.957 45.445C136.349 44.0075 136.045 42.4709 136.045 40.8352V32.9538H132.766V26.2126H136.045V15.6051H142.75V26.2126H152.956V32.9538H142.75V40.8352C142.75 41.5456 142.881 42.2148 143.144 42.8427C143.407 43.454 143.769 43.991 144.229 44.4536C144.689 44.9162 145.232 45.288 145.856 45.5689C146.481 45.8333 147.146 45.9654 147.853 45.9654H152.956V52.7067H147.853ZM174.404 51.0214C175.028 50.5752 175.612 50.1044 176.154 49.6087L178.373 52.7067H180V26.163H173.27V40.8352C173.27 41.5456 173.138 42.2396 172.875 42.917C172.612 43.5779 172.251 44.1727 171.791 44.7014C171.331 45.2302 170.788 45.6598 170.164 45.9902C169.556 46.3041 168.906 46.4611 168.216 46.4611C167.509 46.4611 166.844 46.3372 166.219 46.0894C165.611 45.8415 165.077 45.478 164.617 44.9989C164.157 44.5197 163.787 43.9331 163.507 43.2392C163.244 42.5287 163.113 41.7274 163.113 40.8352V26.163H156.408V40.8352C156.408 42.7353 156.712 44.4536 157.32 45.9902C157.944 47.5103 158.791 48.8073 159.859 49.8813C160.944 50.9387 162.201 51.7566 163.631 52.3349C165.061 52.9132 166.589 53.2024 168.216 53.2024C168.956 53.2024 169.679 53.1032 170.385 52.9049C171.109 52.7232 171.807 52.4754 172.481 52.1614C173.155 51.831 173.796 51.4509 174.404 51.0214Z" fill="white"/>
</svg>
