<svg width="151" height="56" viewBox="0 0 151 56" fill="none" xmlns="http://www.w3.org/2000/svg">
<path fill-rule="evenodd" clip-rule="evenodd" d="M33.0362 1.07288e-06H40.66L28.2361 24.3961H37.2716L53.3662 56H45.7425L20.2408 31.604H0L33.0362 1.07288e-06ZM86.0418 15.8396C86.0418 16.3643 85.9384 16.8546 85.7316 17.3103C85.5386 17.7661 85.2697 18.1665 84.925 18.5118C84.5803 18.8432 84.1736 19.1125 83.7049 19.3197C83.2499 19.513 82.7604 19.6097 82.2365 19.6097C81.7126 19.6097 81.2163 19.513 80.7475 19.3197C80.2925 19.1125 79.8927 18.8432 79.548 18.5118C79.2171 18.1665 78.9483 17.7661 78.7415 17.3103C78.5485 16.8546 78.452 16.3643 78.452 15.8396C78.452 15.3286 78.5485 14.8452 78.7415 14.3895C78.9483 13.92 79.2171 13.5195 79.548 13.1881C79.8927 12.8428 80.2925 12.5735 80.7475 12.3802C81.2163 12.173 81.7126 12.0694 82.2365 12.0694C82.7604 12.0694 83.2499 12.173 83.7049 12.3802C84.1736 12.5735 84.5803 12.8428 84.925 13.1881C85.2697 13.5195 85.5386 13.92 85.7316 14.3895C85.9384 14.8452 86.0418 15.3286 86.0418 15.8396ZM85.0698 44.0533H79.3826V21.8676H85.0698V44.0533ZM76.8802 44.0533H56.1168V14.3481H62.0521V38.1081H76.8802V44.0533ZM89.3921 44.0533H95.0379V31.3758C95.0379 30.7958 95.1482 30.2503 95.3688 29.7393C95.5894 29.2145 95.8927 28.7588 96.2788 28.3721C96.6648 27.9854 97.1198 27.6816 97.6437 27.4607C98.1676 27.2397 98.726 27.1292 99.3188 27.1292C99.8979 27.1292 100.442 27.2397 100.953 27.4607C101.463 27.6816 101.911 27.9854 102.297 28.3721C102.683 28.7588 102.986 29.2145 103.207 29.7393C103.427 30.2503 103.538 30.7958 103.538 31.3758V44.0533H109.184V31.3758C109.184 30.0086 108.922 28.7243 108.398 27.5228C107.888 26.3075 107.184 25.2511 106.288 24.3534C105.392 23.442 104.344 22.7307 103.145 22.2198C101.945 21.695 100.67 21.4326 99.3188 21.4326C98.0642 21.4326 96.8578 21.6605 95.6997 22.1162C94.5554 22.5581 93.5282 23.1934 92.6183 24.022L90.757 21.8676H89.3921V44.0533ZM124.032 44.0533C122.667 44.0533 121.385 43.7979 120.186 43.2869C118.986 42.7621 117.931 42.0509 117.022 41.1532C116.125 40.2418 115.415 39.1853 114.891 37.9839C114.381 36.7824 114.126 35.4981 114.126 34.1309V27.5435H111.376V21.909H114.126V13.043H119.751V21.909H128.313V27.5435H119.751V34.1309C119.751 34.7247 119.862 35.284 120.082 35.8088C120.303 36.3198 120.606 36.7686 120.992 37.1553C121.378 37.5419 121.833 37.8527 122.357 38.0874C122.881 38.3084 123.439 38.4189 124.032 38.4189H128.313V44.0533H124.032ZM146.305 42.6447C146.829 42.2718 147.319 41.8783 147.774 41.464L149.635 44.0533H151V21.8676H145.354V34.1309C145.354 34.7247 145.244 35.3047 145.023 35.8709C144.803 36.4233 144.499 36.9205 144.113 37.3624C143.727 37.8043 143.272 38.1634 142.748 38.4396C142.238 38.702 141.694 38.8332 141.115 38.8332C140.522 38.8332 139.963 38.7296 139.439 38.5224C138.929 38.3153 138.481 38.0115 138.095 37.611C137.709 37.2105 137.399 36.7202 137.165 36.1402C136.944 35.5464 136.834 34.8766 136.834 34.1309V21.8676H131.209V34.1309C131.209 35.719 131.464 37.1553 131.974 38.4396C132.498 39.7101 133.208 40.7942 134.104 41.6918C135.014 42.5757 136.069 43.2593 137.268 43.7426C138.467 44.226 139.75 44.4676 141.115 44.4676C141.735 44.4676 142.342 44.3848 142.935 44.2191C143.541 44.0672 144.127 43.86 144.692 43.5976C145.258 43.3214 145.795 43.0038 146.305 42.6447Z" fill="url(#paint0_linear_421_231)"/>
<defs>
<linearGradient id="paint0_linear_421_231" x1="75.5" y1="84" x2="38.9857" y2="-14.4583" gradientUnits="userSpaceOnUse">
<stop stop-color="#FF057C"/>
<stop offset="0.505122" stop-color="#8D0B93"/>
<stop offset="1" stop-color="#321575"/>
</linearGradient>
</defs>
</svg>
