<svg width="216" height="95" viewBox="0 0 216 95" fill="none" xmlns="http://www.w3.org/2000/svg">
<path fill-rule="evenodd" clip-rule="evenodd" d="M150.684 13.081C150.684 12.6806 150.461 12.3146 150.107 12.1355L143.149 8.61161C142.855 8.4628 142.509 8.4628 142.215 8.61161L107.89 25.9947L73.5655 8.61161C73.2716 8.4628 72.9257 8.4628 72.6319 8.61161L65.6736 12.1355C65.32 12.3146 65.0966 12.6806 65.0966 13.081V48.32C65.0966 48.7204 65.32 49.0865 65.6736 49.2656L72.6319 52.7894C72.9257 52.9383 73.2716 52.9383 73.5654 52.7894L100.932 38.9303L107.424 42.2178C107.717 42.3666 108.063 42.3666 108.357 42.2178L114.849 38.9303L142.215 52.7894C142.509 52.9383 142.855 52.9383 143.149 52.7894L150.107 49.2656C150.461 49.0865 150.684 48.7204 150.684 48.32V13.081ZM93.9738 35.4064L98.598 37.7483L73.0987 50.662L68.4742 48.32L93.9738 35.4064ZM91.6396 34.2244L67.1841 46.6095V13.7344L72.0549 11.2677V37.7483C72.0549 38.1147 72.2422 38.455 72.55 38.6476C72.8577 38.8402 73.2419 38.8577 73.5655 38.6939L87.0154 31.8825L91.6396 34.2244ZM74.1424 36.0378V11.2677L107.424 28.1222C107.717 28.271 108.063 28.271 108.357 28.1222L141.638 11.2677V36.0378L136.768 33.5711V27.1979C136.768 27.1894 136.768 27.1808 136.768 27.1722C136.768 27.166 136.768 27.1599 136.768 27.1537V20.1289C136.768 19.7625 136.58 19.4222 136.272 19.2296C135.965 19.037 135.581 19.0195 135.257 19.1833L107.89 33.0425L80.5236 19.1833C80.2001 19.0194 79.816 19.037 79.5083 19.2296C79.2006 19.4222 79.0133 19.7625 79.0133 20.1289V27.1537C79.013 27.1685 79.013 27.1832 79.0133 27.198V33.5711L74.1424 36.0378ZM143.726 37.7483V11.2677L148.597 13.7344V46.6095L124.141 34.2244L128.765 31.8825L142.215 38.6939C142.539 38.8577 142.923 38.8402 143.231 38.6476C143.539 38.455 143.726 38.1147 143.726 37.7483ZM121.807 35.4064L147.306 48.32L142.682 50.662L117.183 37.7483L121.807 35.4064ZM134.68 26.5233L128.299 29.755L107.89 40.0903L87.4829 29.7554L87.4821 29.755L81.1006 26.5233V21.8394L107.424 35.17C107.717 35.3188 108.063 35.3188 108.357 35.17L134.68 21.8394V26.5233ZM84.6815 30.7005L81.1006 28.8872V32.5139L84.6815 30.7005ZM131.099 30.7005L134.68 28.8872V32.5139L131.099 30.7005ZM38.5 81.0218V62.5695H40.4214L47.0309 78.6431H47.191L53.8004 62.5695H55.7218V81.0218H54.1562V66.1284H54.0139L47.8671 81.0218H46.3548L40.208 66.1284H40.0656V81.0218H38.5ZM68.2869 78.8321C67.7176 80.0576 66.3298 81.3372 64.0525 81.3372C61.5707 81.3372 59.5603 79.8233 59.5603 77.1563C59.5603 74.4174 61.7219 73.5433 64.8087 73.156C65.0684 73.1234 65.3152 73.0943 65.5486 73.0668C67.3773 72.8507 68.3847 72.7314 68.3847 71.8045V71.4802C68.3847 69.5883 67.2372 68.4347 65.1645 68.4347C63.1897 68.4347 61.9532 69.4529 61.4551 70.6425L59.9517 70.0927C60.8768 67.8312 63.0296 66.9931 65.1201 66.9931C67.2105 66.9931 69.9681 67.9124 69.9681 71.6244V81.0218H68.3847V78.8321H68.2869ZM61.1437 77.2286C61.1437 78.9045 62.478 79.8686 64.2661 79.8686C66.7924 79.8686 68.3847 77.9856 68.3847 75.7148V73.7146C67.9221 74.1743 65.9295 74.4263 64.8087 74.5616C62.4958 74.85 61.1437 75.5528 61.1437 77.2286ZM75.7636 81.0218H74.1802V62.5695H75.7636V73.6968H75.9593L82.364 67.1826H84.3655L78.5212 73.1112L84.7216 81.0218H82.6934L77.3381 74.1654L75.7636 75.6606V81.0218ZM88.9513 81.0218H87.359V67.1826H88.9513V81.0218ZM89.3604 63.6504C89.3604 64.2813 88.8177 64.8039 88.1685 64.8039C87.5193 64.8039 86.9853 64.2813 86.9853 63.6504C86.9853 63.0199 87.5193 62.4972 88.1685 62.4972C88.8177 62.4972 89.3604 63.0199 89.3604 63.6504ZM98.4406 68.4711C96.288 68.4711 94.7224 69.9574 94.7224 72.372V81.0218H93.1388V67.1826H94.6777V69.354H94.8201C95.4605 67.9395 96.8395 67.0024 98.841 67.0024C101.599 67.0024 103.476 68.7772 103.476 72.057V81.0218H101.892V72.1559C101.892 69.8944 100.54 68.4711 98.4406 68.4711ZM118.498 81.382C118.498 84.8961 116.096 86.5 112.858 86.5C110.065 86.5 108.322 85.3105 107.521 83.7247L108.82 82.86C109.398 83.9142 110.518 85.058 112.858 85.058C115.278 85.058 116.906 83.86 116.906 81.2831V78.1657H116.763C116.221 79.436 115.02 80.8776 112.565 80.8776C109.291 80.8776 106.943 78.3099 106.943 74.066C106.943 69.8585 109.211 66.9931 112.591 66.9931C115.1 66.9931 116.229 68.5789 116.79 69.8225H116.95V67.1826H118.498V81.382ZM108.535 74.0389C108.535 77.2104 110.038 79.4089 112.751 79.4089C115.384 79.4089 116.933 77.3817 116.933 74.0389C116.933 70.7956 115.429 68.4529 112.751 68.4529C110.012 68.4529 108.535 70.9216 108.535 74.0389ZM132.226 67.1826H135.117V68.5789H132.226V77.4088C132.226 79.1476 133.213 79.6614 134.29 79.6614C134.708 79.6614 134.993 79.5984 135.215 79.535L135.553 80.9858C135.251 81.1029 134.806 81.229 134.148 81.229C132.395 81.229 130.634 80.0487 130.634 77.7872V68.5789H128.597V67.1826H130.634V63.8669H132.226V67.1826ZM149.295 78.0663C148.672 79.8056 146.83 81.3102 144.09 81.3102C140.265 81.3102 137.864 78.3818 137.864 74.1831C137.864 69.9934 140.31 66.9931 143.85 66.9931C146.813 66.9931 149.633 69.1646 149.633 73.7869V74.5798H139.456C139.527 77.7784 141.297 79.8415 144.09 79.8415C146.03 79.8415 147.266 78.8144 147.791 77.5712L149.295 78.0663ZM143.85 68.4529C141.351 68.4529 139.634 70.5883 139.465 73.1649H148.014C148.014 70.4983 146.297 68.4529 143.85 68.4529ZM163.672 76.9855C163.307 79.4901 161.306 81.3102 158.459 81.3102C154.785 81.3102 152.419 78.2917 152.419 74.1654C152.419 70.0027 154.856 66.9931 158.432 66.9931C161.172 66.9931 163.29 68.7231 163.663 71.2911H162.062C161.724 69.7232 160.407 68.4529 158.459 68.4529C155.835 68.4529 154.011 70.7596 154.011 74.1113C154.011 77.4807 155.782 79.8415 158.459 79.8415C160.274 79.8415 161.706 78.7514 162.071 76.9855H163.672ZM172.439 68.4711C170.25 68.4711 168.649 69.9574 168.649 72.372V81.0218H167.066V62.5695H168.649V69.354H168.791C169.432 67.9213 170.775 67.0024 172.839 67.0024C175.614 67.0024 177.5 68.759 177.5 72.057V81.0218H175.908V72.1559C175.908 69.8762 174.556 68.4711 172.439 68.4711Z" fill="#8A8A8A"/>
</svg>
