<svg width="21" height="37" viewBox="0 0 21 37" fill="none" xmlns="http://www.w3.org/2000/svg">
<path d="M0.672061 3.91706C0.458991 3.70399 0.289976 3.45104 0.174663 3.17265C0.0593507 2.89426 2.24505e-09 2.59589 0 2.29456C-2.24505e-09 1.99324 0.0593508 1.69486 0.174663 1.41647C0.289976 1.13808 0.458991 0.885131 0.672061 0.672061C0.885131 0.458991 1.13808 0.289976 1.41647 0.174663C1.69486 0.0593508 1.99324 -2.24505e-09 2.29456 0C2.59589 2.24505e-09 2.89426 0.0593507 3.17265 0.174663C3.45104 0.289976 3.70399 0.458991 3.91706 0.672061L19.9587 16.7137C20.1721 16.9266 20.3415 17.1795 20.457 17.4579C20.5725 17.7363 20.632 18.0348 20.632 18.3362C20.632 18.6377 20.5725 18.9361 20.457 19.2145C20.3415 19.493 20.1721 19.7458 19.9587 19.9587L3.91706 36.0004C3.70399 36.2135 3.45104 36.3825 3.17265 36.4978C2.89426 36.6131 2.59589 36.6725 2.29456 36.6725C1.99324 36.6725 1.69486 36.6131 1.41647 36.4978C1.13808 36.3825 0.885131 36.2135 0.672061 36.0004C0.458991 35.7873 0.289976 35.5344 0.174663 35.256C0.0593508 34.9776 0 34.6792 0 34.3779C0 34.0766 0.0593508 33.7782 0.174663 33.4998C0.289976 33.2214 0.458991 32.9685 0.672061 32.7554L15.0958 18.3362L0.672061 3.91706Z" fill="#570044"/>
</svg>
