<svg width="42" height="55" viewBox="0 0 42 55" fill="none" xmlns="http://www.w3.org/2000/svg">
<path d="M12.1271 13.0808C11.9141 12.8677 11.7451 12.6148 11.6297 12.3364C11.5144 12.058 11.4551 11.7596 11.4551 11.4583C11.4551 11.157 11.5144 10.8586 11.6297 10.5802C11.7451 10.3018 11.9141 10.0489 12.1271 9.83582C12.3402 9.62275 12.5932 9.45373 12.8715 9.33842C13.1499 9.22311 13.4483 9.16376 13.7496 9.16376C14.051 9.16376 14.3493 9.22311 14.6277 9.33842C14.9061 9.45373 15.1591 9.62275 15.3721 9.83582L31.4138 25.8775C31.6272 26.0904 31.7965 26.3432 31.9121 26.6217C32.0276 26.9001 32.0871 27.1985 32.0871 27.5C32.0871 27.8014 32.0276 28.0999 31.9121 28.3783C31.7965 28.6567 31.6272 28.9096 31.4138 29.1225L15.3721 45.1641C15.1591 45.3772 14.9061 45.5462 14.6277 45.6615C14.3493 45.7769 14.051 45.8362 13.7496 45.8362C13.4483 45.8362 13.1499 45.7769 12.8715 45.6615C12.5932 45.5462 12.3402 45.3772 12.1271 45.1641C11.9141 44.9511 11.7451 44.6981 11.6297 44.4197C11.5144 44.1414 11.4551 43.843 11.4551 43.5416C11.4551 43.2403 11.5144 42.9419 11.6297 42.6636C11.7451 42.3852 11.9141 42.1322 12.1271 41.9191L26.5509 27.5L12.1271 13.0808Z" fill="white"/>
</svg>
