<svg width="216" height="95" viewBox="0 0 216 95" fill="none" xmlns="http://www.w3.org/2000/svg">
<path fill-rule="evenodd" clip-rule="evenodd" d="M73.9229 41.8409C62.783 28.0715 51.4958 21 40.0545 21C28.6131 21 17.326 28.0715 6.18596 41.8409C6.06566 41.9895 6 42.1753 6 42.3669V52.6332C6 52.8248 6.06566 53.0105 6.18596 53.1592C17.326 66.9285 28.6131 74 40.0545 74C51.4958 74 62.783 66.9285 73.9229 53.1592C74.0432 53.0105 74.109 52.8248 74.109 52.6332V42.3669C74.109 42.1753 74.0432 41.9895 73.9229 41.8409ZM13.8332 53.1337L7.66119 44.8693V52.3364C18.6067 65.7891 29.4069 72.3317 40.0545 72.3317C50.6293 72.3317 61.3547 65.8781 72.2235 52.611L64.9598 42.8845C56.5242 32.7247 48.0086 27.8015 39.4156 27.8015C30.9723 27.8015 22.2 32.5532 13.0942 42.3444L16.9676 46.2343C24.503 36.3957 32.1929 31.2663 40.0545 31.2663C48.105 31.2663 55.9757 36.6454 63.6846 46.952L68.7543 52.0434C69.0689 52.3592 69.0799 52.8676 68.7792 53.1969C59.3366 63.5419 49.9731 68.867 40.6934 68.867C31.4011 68.867 22.4578 63.5292 13.8596 53.1672C13.8505 53.1563 13.8417 53.1451 13.8332 53.1337ZM72.4478 42.6637V50.1308L66.2758 41.8664C66.2671 41.855 66.2585 41.8438 66.2495 41.8328C57.6512 31.471 48.708 26.1332 39.4156 26.1332C30.1358 26.1332 20.7723 31.4583 11.3297 41.8032C11.0292 42.1324 11.0402 42.6409 11.3546 42.9567L16.4244 48.0481C24.1333 58.3548 32.0039 63.7337 40.0545 63.7337C47.9159 63.7337 55.6059 58.6044 63.1414 48.7658L67.0147 52.6557C57.909 62.4468 49.1366 67.1987 40.6934 67.1987C32.1005 67.1987 23.5846 62.2753 15.1493 52.1156L7.88541 42.389C18.7543 29.1219 29.4796 22.6683 40.0545 22.6683C50.7021 22.6683 61.5022 29.211 72.4478 42.6637ZM40.0545 62.0654C32.9033 62.0654 25.5776 57.3542 18.0947 47.5C25.5776 37.646 32.9033 32.9346 40.0545 32.9346C47.2056 32.9346 54.5315 37.646 62.0141 47.5C54.5315 57.3542 47.2056 62.0654 40.0545 62.0654ZM94.7942 39.211C90.8605 39.211 87.857 42.2005 87.857 47.5123C87.857 52.8242 90.8605 55.8404 94.7942 55.8404C98.7279 55.8404 101.731 52.8242 101.731 47.5123C101.731 42.2005 98.7279 39.211 94.7942 39.211ZM94.7942 37.5027C100.243 37.5027 103.618 41.6133 103.618 47.5123C103.618 53.4114 100.243 57.5487 94.7942 57.5487C89.3455 57.5487 85.9699 53.4114 85.9699 47.5123C85.9699 41.6133 89.3455 37.5027 94.7942 37.5027ZM106.679 42.8412H108.327V45.2702C109.044 43.9089 110.4 42.6009 113.084 42.6009C116.46 42.6009 117.895 44.6296 117.895 48.153V57.2017H116.247V48.6067C116.247 45.9108 115.53 44.0957 112.659 44.0957C110.187 44.0957 108.327 46.1777 108.327 49.2207V57.2017H106.679V42.8412ZM133.275 52.9042C132.558 55.8938 130.245 57.5487 127.082 57.5487C122.91 57.5487 120.331 54.5325 120.331 50.0748C120.331 45.457 123.202 42.6009 127.029 42.6009C131.043 42.6009 133.621 46.0176 133.408 50.5019H122.032C122.112 53.9986 124.265 56.0273 127.189 56.0273C129.421 56.0273 130.99 54.9062 131.548 52.9042H133.275ZM131.601 48.9804C131.601 46.5514 129.873 44.0957 127.003 44.0957C124.345 44.0957 122.431 45.7773 122.086 48.9804H131.601ZM144.163 39.211C140.229 39.211 137.226 42.2005 137.226 47.5123C137.226 52.8242 140.229 55.8404 144.163 55.8404C148.097 55.8404 151.1 52.8242 151.1 47.5123C151.1 42.2005 148.097 39.211 144.163 39.211ZM144.163 37.5027C149.612 37.5027 152.987 41.6133 152.987 47.5123C152.987 53.4114 149.612 57.5487 144.163 57.5487C138.714 57.5487 135.339 53.4114 135.339 47.5123C135.339 41.6133 138.714 37.5027 144.163 37.5027ZM162.187 44.0957C160.034 44.0957 157.589 45.804 157.589 50.0748C157.589 54.3456 160.034 56.054 162.187 56.054C164.845 56.054 166.732 53.8919 166.732 50.0748C166.732 46.2578 164.845 44.0957 162.187 44.0957ZM162.533 42.6009C165.829 42.6009 168.513 45.2969 168.513 50.0748C168.513 54.8528 165.829 57.5487 162.533 57.5487C160.406 57.5487 158.732 56.5611 157.695 54.8261V61.8729H156.047V42.8412H157.695V45.2969C158.732 43.5885 160.406 42.6009 162.533 42.6009ZM169.661 42.8412H172.026V39.6114H173.701V42.8412H176.518V44.2826H173.701V53.4648C173.701 55.3066 173.754 55.707 175.667 55.707H176.518V57.2017H175.162C172.611 57.2017 172.026 56.6412 172.026 53.7851V44.2826H169.661V42.8412ZM179.356 57.2017V42.8412H181.004V57.2017H179.356ZM179.356 40.4922V37.8497H181.004V40.4922H179.356ZM183.872 50.0748C183.872 45.6172 186.264 42.6009 190.437 42.6009C193.706 42.6009 195.886 44.8965 196.311 47.459H194.583C194.052 45.2969 192.377 44.1224 190.278 44.1224C187.832 44.1224 185.626 46.0976 185.626 50.0481C185.626 54.1321 187.832 56.0273 190.304 56.0273C192.749 56.0273 194.265 54.4524 194.69 52.664H196.444C195.886 55.6269 193.467 57.5487 190.304 57.5487C186.264 57.5487 183.872 54.4791 183.872 50.0748ZM204.153 42.5742C207.236 42.5742 209.309 44.4961 209.654 46.765H207.927C207.581 45.0566 206.013 44.0423 203.993 44.0423C202.425 44.0423 200.352 44.6562 200.352 46.3913C200.352 47.806 201.442 48.5534 203.036 48.847L205.056 49.2207C207.395 49.6477 210 50.4485 210 53.1712C210 56.0273 207.422 57.5487 204.312 57.5487C201.362 57.5487 198.81 56.0806 198.385 52.7975H200.113C200.405 55.0396 202.265 56.0806 204.445 56.0806C206.173 56.0806 208.326 55.3599 208.326 53.4381C208.326 51.7565 206.731 51.1692 204.79 50.7955L202.558 50.3684C200.511 49.9414 198.677 48.7936 198.677 46.5247C198.677 44.2559 200.937 42.5742 204.153 42.5742Z" fill="#8A8A8A"/>
</svg>
