<svg width="94" height="94" viewBox="0 0 94 94" fill="none" xmlns="http://www.w3.org/2000/svg">
<path d="M84.6 25.85C84.6 31.4594 82.3717 36.8389 78.4053 40.8053C74.4389 44.7717 69.0593 47 63.45 47C57.8406 47 52.4611 44.7717 48.4947 40.8053C44.5283 36.8389 42.3 31.4594 42.3 25.85C42.3 20.2407 44.5283 14.8611 48.4947 10.8947C52.4611 6.92831 57.8406 4.70001 63.45 4.70001C69.0593 4.70001 74.4389 6.92831 78.4053 10.8947C82.3717 14.8611 84.6 20.2407 84.6 25.85V25.85ZM74.5138 17.1362C74.2955 16.9174 74.0361 16.7437 73.7506 16.6253C73.4651 16.5068 73.1591 16.4458 72.85 16.4458C72.5409 16.4458 72.2348 16.5068 71.9493 16.6253C71.6638 16.7437 71.4045 16.9174 71.1862 17.1362L58.75 29.5771L55.7138 26.5362C55.4953 26.3177 55.2359 26.1444 54.9504 26.0262C54.6649 25.9079 54.359 25.8471 54.05 25.8471C53.741 25.8471 53.435 25.9079 53.1495 26.0262C52.8641 26.1444 52.6047 26.3177 52.3862 26.5362C52.1677 26.7547 51.9944 27.0141 51.8761 27.2996C51.7579 27.5851 51.697 27.891 51.697 28.2C51.697 28.509 51.7579 28.815 51.8761 29.1005C51.9944 29.3859 52.1677 29.6453 52.3862 29.8638L57.0862 34.5638C57.3045 34.7827 57.5638 34.9563 57.8493 35.0748C58.1348 35.1932 58.4409 35.2542 58.75 35.2542C59.0591 35.2542 59.3652 35.1932 59.6507 35.0748C59.9362 34.9563 60.1955 34.7827 60.4138 34.5638L74.5138 20.4638C74.7326 20.2455 74.9062 19.9862 75.0247 19.7007C75.1432 19.4152 75.2042 19.1091 75.2042 18.8C75.2042 18.4909 75.1432 18.1848 75.0247 17.8993C74.9062 17.6138 74.7326 17.3545 74.5138 17.1362V17.1362ZM30.55 9.40001H43.5079C39.9976 13.6509 37.9382 18.9127 37.6305 24.417C37.3228 29.9213 38.7828 35.3798 41.7975 39.9954C44.8121 44.6111 49.2234 48.142 54.3871 50.0727C59.5509 52.0034 65.1967 52.2327 70.5 50.7271V77.55C70.5 79.4198 69.7572 81.213 68.4351 82.5351C67.1129 83.8573 65.3197 84.6 63.45 84.6H30.55C28.6802 84.6 26.887 83.8573 25.5649 82.5351C24.2428 81.213 23.5 79.4198 23.5 77.55V16.45C23.5 14.5802 24.2428 12.787 25.5649 11.4649C26.887 10.1428 28.6802 9.40001 30.55 9.40001V9.40001ZM37.6 68.15C37.6 68.7733 37.8476 69.371 38.2883 69.8117C38.729 70.2524 39.3267 70.5 39.95 70.5H54.05C54.6732 70.5 55.271 70.2524 55.7117 69.8117C56.1524 69.371 56.4 68.7733 56.4 68.15C56.4 67.5268 56.1524 66.929 55.7117 66.4883C55.271 66.0476 54.6732 65.8 54.05 65.8H39.95C39.3267 65.8 38.729 66.0476 38.2883 66.4883C37.8476 66.929 37.6 67.5268 37.6 68.15Z" fill="url(#paint0_linear_421_167)"/>
<defs>
<linearGradient id="paint0_linear_421_167" x1="54.05" y1="-35.25" x2="-23.0588" y2="23.7154" gradientUnits="userSpaceOnUse">
<stop stop-color="#FF057C"/>
<stop offset="0.505122" stop-color="#8D0B93"/>
<stop offset="1" stop-color="#321575"/>
</linearGradient>
</defs>
</svg>
