<svg width="21" height="38" viewBox="0 0 21 38" fill="none" xmlns="http://www.w3.org/2000/svg">
<path d="M19.9598 3.98828C20.1728 3.77134 20.3419 3.51379 20.4572 3.23034C20.5725 2.94689 20.6318 2.64309 20.6318 2.33628C20.6318 2.02948 20.5725 1.72568 20.4572 1.44222C20.3419 1.15877 20.1728 0.901224 19.9598 0.68428C19.7467 0.467336 19.4938 0.295248 19.2154 0.177839C18.937 0.0604299 18.6386 -2.28587e-09 18.3373 0C18.0359 2.28587e-09 17.7376 0.0604299 17.4592 0.177839C17.1808 0.295248 16.9278 0.467336 16.7148 0.68428L0.673108 17.0176C0.459693 17.2344 0.290369 17.4918 0.174839 17.7753C0.0593097 18.0588 -0.000154019 18.3627 -0.000154019 18.6696C-0.000154019 18.9765 0.0593097 19.2804 0.174839 19.5639C0.290369 19.8474 0.459693 20.1049 0.673108 20.3216L16.7148 36.6549C16.9278 36.8719 17.1808 37.044 17.4592 37.1614C17.7376 37.2788 18.0359 37.3392 18.3373 37.3392C18.6386 37.3392 18.937 37.2788 19.2154 37.1614C19.4938 37.044 19.7467 36.8719 19.9598 36.6549C20.1728 36.438 20.3419 36.1805 20.4572 35.897C20.5725 35.6136 20.6318 35.3097 20.6318 35.0029C20.6318 34.6961 20.5725 34.3923 20.4572 34.1089C20.3419 33.8254 20.1728 33.5679 19.9598 33.3509L5.53602 18.6696L19.9598 3.98828Z" fill="#570044" fill-opacity="0.3"/>
</svg>
