<svg width="216" height="95" viewBox="0 0 216 95" fill="none" xmlns="http://www.w3.org/2000/svg">
<path d="M65.5 49.2806C65.5551 63.1412 76.7102 74.5 90.4137 74.5C104.151 74.5 115.327 63.187 115.327 49.2806V45.7203C115.327 39.9942 119.929 35.3351 125.586 35.3351C131.243 35.3351 135.844 39.9942 135.844 45.7203C135.844 47.3589 137.157 48.6875 138.776 48.6875H147.569C149.188 48.6875 150.5 47.3589 150.5 45.7203C150.5 31.814 139.324 20.5 125.587 20.5C111.849 20.5 100.673 31.814 100.673 45.7203V49.2806C100.673 55.0076 96.0702 59.665 90.4145 59.665C84.758 59.665 80.1556 55.0076 80.1556 49.2806C80.1556 47.6421 78.8431 46.3134 77.2245 46.3134H68.4311C66.8125 46.3143 65.5 47.6421 65.5 49.2806Z" fill="#8A8A8A"/>
</svg>
